<?xml version="1.0" encoding="UTF-8"?>
<!DOCTYPE svg PUBLIC "-//W3C//DTD SVG 1.1//EN" "http://www.w3.org/Graphics/SVG/1.1/DTD/svg11.dtd">
<svg xmlns="http://www.w3.org/2000/svg" version="1.1" width="1080px" height="1080px" style="shape-rendering:geometricPrecision; text-rendering:geometricPrecision; image-rendering:optimizeQuality; fill-rule:evenodd; clip-rule:evenodd" xmlns:xlink="http://www.w3.org/1999/xlink">
<g><path style="opacity:0.999" fill="#161713" d="M 609.5,453.5 C 608.244,453.539 607.244,453.039 606.5,452C 583.502,451.5 560.502,451.333 537.5,451.5C 537.333,465.171 537.5,478.837 538,492.5C 538.896,479.681 539.73,467.014 540.5,454.5C 540.821,466.081 540.488,477.581 539.5,489C 560.183,489.232 580.849,489.899 601.5,491C 603.432,501.967 603.765,512.967 602.5,524C 581.169,524.5 559.836,524.667 538.5,524.5C 559.004,523.833 579.671,523.167 600.5,522.5C 579.177,521.5 557.844,521.167 536.5,521.5C 536.333,535.837 536.5,550.171 537,564.5C 555.252,564.633 573.586,564.3 592,563.5C 598.167,563.833 604.333,564.167 610.5,564.5C 609.675,565.386 608.675,565.719 607.5,565.5C 607.593,571.863 607.26,578.196 606.5,584.5C 483.833,584.833 483.833,585.167 606.5,585.5C 606.5,586.5 606.5,587.5 606.5,588.5C 574.302,588.822 542.135,588.489 510,587.5C 509.5,587.833 509,588.167 508.5,588.5C 542.179,589.172 575.845,590.172 609.5,591.5C 574.426,592.347 539.426,592.847 504.5,593C 505.16,584.075 505.493,575.075 505.5,566C 504.985,518.334 504.318,470.834 503.5,423.5C 503.804,422.85 504.137,422.183 504.5,421.5C 539.495,420.333 574.495,420.167 609.5,421C 610.829,431.931 610.829,442.765 609.5,453.5 Z"/></g>
<g><path style="opacity:1" fill="#161611" d="M 659.5,421.5 C 651.265,421.384 642.598,421.717 633.5,422.5C 641.807,423.498 650.14,423.831 658.5,423.5C 658.5,479.833 658.5,536.167 658.5,592.5C 647.782,592.213 637.115,592.546 626.5,593.5C 625.335,536.668 625.168,479.668 626,422.5C 626.5,422 627,421.5 627.5,421C 638.341,420.175 649.008,420.341 659.5,421.5 Z"/></g>
<g><path style="opacity:0.674" fill="#191813" d="M 659.5,421.5 C 660.833,449.825 661.5,478.492 661.5,507.5C 661.333,536.167 661.167,564.833 661,593.5C 649.402,594.829 637.902,594.829 626.5,593.5C 637.115,592.546 647.782,592.213 658.5,592.5C 658.5,536.167 658.5,479.833 658.5,423.5C 650.14,423.831 641.807,423.498 633.5,422.5C 642.598,421.717 651.265,421.384 659.5,421.5 Z"/></g>
<g><path style="opacity:0.602" fill="#262723" d="M 609.5,453.5 C 586.673,454.498 563.673,454.831 540.5,454.5C 539.73,467.014 538.896,479.681 538,492.5C 537.5,478.837 537.333,465.171 537.5,451.5C 560.502,451.333 583.502,451.5 606.5,452C 607.244,453.039 608.244,453.539 609.5,453.5 Z"/></g>
<g><path style="opacity:0.993" fill="#171713" d="M 730.5,467.5 C 746.477,467.325 761.144,471.492 774.5,480C 785.033,488.425 791.033,499.091 792.5,512C 781.167,512.667 769.833,512.667 758.5,512C 748.385,497.32 735.719,494.654 720.5,504C 709.457,513.63 705.29,525.796 708,540.5C 715.121,563.815 729.621,570.315 751.5,560C 754.069,557.521 756.402,554.854 758.5,552C 764.186,551.689 769.853,551.189 775.5,550.5C 781.181,551.025 786.848,551.692 792.5,552.5C 789.249,571.29 778.583,584.457 760.5,592C 728.871,602.895 702.704,595.395 682,569.5C 664.086,535.487 668.92,505.32 696.5,479C 707.058,472.538 718.391,468.705 730.5,467.5 Z"/></g>
<g><path style="opacity:1" fill="#181814" d="M 963.5,592.5 C 962.504,592.586 961.671,592.252 961,591.5C 960.667,575.5 960.333,559.5 960,543.5C 959.5,558.83 959.333,574.163 959.5,589.5C 950.5,589.5 941.5,589.5 932.5,589.5C 932.5,551.5 932.5,513.5 932.5,475.5C 941.5,475.5 950.5,475.5 959.5,475.5C 959.309,480.899 959.809,486.233 961,491.5C 961.324,489.305 962.157,487.305 963.5,485.5C 967.795,476.049 975.128,470.549 985.5,469C 991.825,468.5 998.158,468.334 1004.5,468.5C 1004.67,479.838 1004.5,491.172 1004,502.5C 1003.31,503.357 1002.48,504.023 1001.5,504.5C 981.863,500.273 969.363,507.939 964,527.5C 963.5,549.164 963.333,570.831 963.5,592.5 Z"/></g>
<g><path style="opacity:0.995" fill="#181814" d="M 910.5,519.5 C 909.681,522.305 909.181,525.305 909,528.5C 908.833,549.508 908.333,570.508 907.5,591.5C 906.672,590.585 905.672,589.919 904.5,589.5C 897.638,591.179 890.638,592.012 883.5,592C 885.708,592.191 887.708,592.691 889.5,593.5C 886.15,593.665 882.817,593.498 879.5,593C 878.88,590.527 878.214,588.027 877.5,585.5C 855.368,599.657 833.034,600.157 810.5,587C 799.967,577.058 796.134,564.892 799,550.5C 802.249,538.917 809.415,530.75 820.5,526C 838.63,522.793 856.63,519.126 874.5,515C 876.347,512.421 876.847,509.588 876,506.5C 871.744,499.116 865.244,495.449 856.5,495.5C 845.25,495.772 838.25,501.272 835.5,512C 824.505,512.5 813.505,512.667 802.5,512.5C 802.608,505.515 804.108,498.848 807,492.5C 821.561,472.86 841.061,464.694 865.5,468C 884.693,469.161 898.86,477.994 908,494.5C 910.233,502.667 911.066,511 910.5,519.5 Z M 871.5,538.5 C 872.93,538.421 874.264,538.754 875.5,539.5C 879.766,554.144 874.766,563.644 860.5,568C 854.224,569.424 847.891,569.758 841.5,569C 838.898,568.117 836.731,566.617 835,564.5C 834.333,560.167 834.333,555.833 835,551.5C 836.167,550.333 837.333,549.167 838.5,548C 849.838,545.586 860.838,542.42 871.5,538.5 Z"/></g>
<g><path style="opacity:1" fill="#191914" d="M 249.5,331.5 C 301.626,329.373 347.292,345.206 386.5,379C 432.044,423.623 451.878,477.789 446,541.5C 437.597,599.498 409.097,644.665 360.5,677C 296.48,713.241 231.814,714.241 166.5,680C 92.9427,630.738 64.1094,562.238 80,474.5C 87.4204,443.99 101.42,416.99 122,393.5C 149.46,362.512 183.627,343.012 224.5,335C 232.968,333.735 241.301,332.569 249.5,331.5 Z"/></g>
<g><path style="opacity:1" fill="#ccbc7b" d="M 117.5,450.5 C 111.285,466.455 106.952,482.788 104.5,499.5C 103.233,512.686 103.233,526.02 104.5,539.5C 101.298,517.927 102.131,496.261 107,474.5C 110.066,468.476 112.4,462.143 114,455.5C 114.737,453.404 115.903,451.737 117.5,450.5 Z"/></g>
<g><path style="opacity:1" fill="#cabc7a" d="M 107.5,444.5 C 105.104,450.543 103.604,456.876 103,463.5C 97.1837,474.765 94.1837,486.765 94,499.5C 93.79,497.942 93.29,496.609 92.5,495.5C 94.2681,477.404 99.2681,460.404 107.5,444.5 Z"/></g>
<g><path style="opacity:1" fill="#d0a740" d="M 362.5,381.5 C 374.773,389.107 385.106,398.773 393.5,410.5C 395.046,412.882 395.713,415.549 395.5,418.5C 394.325,418.281 393.325,418.614 392.5,419.5C 394.439,421.122 394.772,422.956 393.5,425C 391.481,424.848 389.481,424.348 387.5,423.5C 377.803,411.47 366.803,400.803 354.5,391.5C 355.927,389.1 355.427,388.433 353,389.5C 352.383,386.824 353.216,386.157 355.5,387.5C 356.924,384.464 359.257,382.464 362.5,381.5 Z"/></g>
<g><path style="opacity:1" fill="#c49a3c" d="M 306.5,353.5 C 326.847,359.674 345.514,369.007 362.5,381.5C 359.257,382.464 356.924,384.464 355.5,387.5C 353.216,386.157 352.383,386.824 353,389.5C 355.427,388.433 355.927,389.1 354.5,391.5C 340.731,382.646 326.397,374.98 311.5,368.5C 315.527,368.719 316.194,367.552 313.5,365C 313.957,364.586 314.291,364.086 314.5,363.5C 313.086,362.376 311.586,361.376 310,360.5C 309.449,356.807 309.949,356.64 311.5,360C 313.728,360.82 315.728,360.487 317.5,359C 313.578,357.431 309.912,355.598 306.5,353.5 Z"/></g>
<g><path style="opacity:1" fill="#191a15" d="M 286.5,362.5 C 294.618,364.861 302.951,366.861 311.5,368.5C 326.397,374.98 340.731,382.646 354.5,391.5C 366.803,400.803 377.803,411.47 387.5,423.5C 405.019,448.024 415.352,475.357 418.5,505.5C 418.667,516.172 418.5,526.839 418,537.5C 416.699,543.844 415.532,550.177 414.5,556.5C 413.599,557.29 412.932,558.29 412.5,559.5C 411.596,558.791 411.263,557.791 411.5,556.5C 410.5,556.5 409.5,556.5 408.5,556.5C 407.742,561.752 407.075,561.585 406.5,556C 407.646,552.477 408.312,548.81 408.5,545C 407.685,537.866 407.019,538.032 406.5,545.5C 405.022,545.762 403.689,545.429 402.5,544.5C 404.005,543.158 404.672,541.492 404.5,539.5C 401.813,539.336 399.146,539.503 396.5,540C 396.833,540.333 397.167,540.667 397.5,541C 394.5,541.333 391.5,541.667 388.5,542C 387.944,542.383 387.611,542.883 387.5,543.5C 363.066,543.62 339.066,546.287 315.5,551.5C 279.624,558.515 245.957,571.348 214.5,590C 203.167,598 191.833,606 180.5,614C 172.985,621.348 165.652,628.848 158.5,636.5C 152.48,630.812 146.48,625.145 140.5,619.5C 130.31,607.155 121.976,593.821 115.5,579.5C 112.498,568.829 109.498,558.162 106.5,547.5C 104.749,531.561 104.082,515.561 104.5,499.5C 106.952,482.788 111.285,466.455 117.5,450.5C 130.996,424.317 149.996,402.65 174.5,385.5C 183.496,380.078 192.83,375.244 202.5,371C 211.509,368.664 220.509,366.497 229.5,364.5C 248.371,361.343 267.371,360.676 286.5,362.5 Z"/></g>
<g><path style="opacity:1" fill="#dab44f" d="M 235.5,465.5 C 235.833,465.5 236.167,465.5 236.5,465.5C 236.5,467.167 236.5,468.833 236.5,470.5C 253.167,470.5 269.833,470.5 286.5,470.5C 294.5,470.5 302.5,470.5 310.5,470.5C 309.446,479.279 307.779,487.945 305.5,496.5C 303.787,497.635 303.12,499.302 303.5,501.5C 282.833,501.5 262.167,501.5 241.5,501.5C 240.192,500.768 238.858,499.934 237.5,499C 239.91,496.468 242.91,494.968 246.5,494.5C 245.482,493.148 244.149,492.148 242.5,491.5C 244.084,488.873 245.751,488.873 247.5,491.5C 248.167,491.167 248.833,490.833 249.5,490.5C 251.505,487.57 252.505,484.57 252.5,481.5C 254.224,482.661 255.89,482.495 257.5,481C 256.376,480.751 255.376,480.251 254.5,479.5C 255.246,478.264 255.579,476.93 255.5,475.5C 249.484,474.865 243.484,474.031 237.5,473C 235.709,470.894 235.042,468.394 235.5,465.5 Z"/></g>
<g><path style="opacity:1" fill="#564b1d" d="M 239.5,455.5 C 239.732,459.98 239.065,464.313 237.5,468.5C 253.995,469.167 270.328,469.833 286.5,470.5C 269.833,470.5 253.167,470.5 236.5,470.5C 236.5,468.833 236.5,467.167 236.5,465.5C 237.288,462.113 238.288,458.78 239.5,455.5 Z"/></g>
<g><path style="opacity:1" fill="#635830" d="M 241.5,442.5 C 241.844,447.122 241.177,451.455 239.5,455.5C 239.28,450.9 239.946,446.567 241.5,442.5 Z"/></g>
<g><path style="opacity:1" fill="#edc866" d="M 242.5,432.5 C 241.699,434.042 241.366,435.708 241.5,437.5C 241.5,439.167 241.5,440.833 241.5,442.5C 239.946,446.567 239.28,450.9 239.5,455.5C 238.288,458.78 237.288,462.113 236.5,465.5C 236.167,465.5 235.833,465.5 235.5,465.5C 234.905,462.887 234.071,462.887 233,465.5C 232.667,465.167 232.333,464.833 232,464.5C 229.895,467.011 230.062,469.344 232.5,471.5C 231.764,473.793 231.598,476.126 232,478.5C 231.311,477.643 230.478,476.977 229.5,476.5C 227.639,477.528 226.305,479.028 225.5,481C 223.925,480.621 222.425,480.788 221,481.5C 220.115,479 218.948,476.667 217.5,474.5C 215.689,478.022 214.023,481.689 212.5,485.5C 212.624,486.107 212.957,486.44 213.5,486.5C 213.953,487.458 214.619,488.292 215.5,489C 211.106,488.503 208.772,490.336 208.5,494.5C 205.477,494.895 204.477,493.895 205.5,491.5C 202.574,486.117 199.907,486.284 197.5,492C 199.835,495.105 199.502,498.105 196.5,501C 197.955,505.599 196.789,506.432 193,503.5C 191.293,504.138 189.46,504.138 187.5,503.5C 187.779,497.778 188.445,492.111 189.5,486.5C 191.103,486.688 192.437,486.188 193.5,485C 193.167,484.667 192.833,484.333 192.5,484C 193.26,478.393 193.927,472.727 194.5,467C 195.769,464.063 197.769,461.73 200.5,460C 200.439,456.893 199.772,453.726 198.5,450.5C 200.527,450.662 202.527,450.495 204.5,450C 203.14,448.062 203.473,446.396 205.5,445C 203.321,444.558 202.655,443.558 203.5,442C 205.313,442.046 206.979,441.88 208.5,441.5C 209.517,443.837 211.184,445.504 213.5,446.5C 214.521,445.998 214.688,445.332 214,444.5C 212.933,443.809 211.766,443.309 210.5,443C 212.947,441.143 215.113,441.31 217,443.5C 221.017,441.82 225.184,440.653 229.5,440C 230.22,437.878 231.387,437.378 233,438.5C 234.883,437.347 235.716,435.681 235.5,433.5C 237.903,433.552 240.236,433.219 242.5,432.5 Z"/></g>
<g><path style="opacity:1" fill="#5c5639" d="M 242.5,436.5 C 262.833,436.5 283.167,436.5 303.5,436.5C 283.671,437.332 263.671,437.832 243.5,438C 242.901,439.622 242.234,441.122 241.5,442.5C 241.5,440.833 241.5,439.167 241.5,437.5C 242.167,437.5 242.5,437.167 242.5,436.5 Z"/></g>
<g><path style="opacity:1" fill="#dcb24e" d="M 292.5,404.5 C 305.833,404.5 319.167,404.5 332.5,404.5C 330.672,414.75 329.339,425.083 328.5,435.5C 299.662,435.169 270.995,435.502 242.5,436.5C 242.5,437.167 242.167,437.5 241.5,437.5C 241.366,435.708 241.699,434.042 242.5,432.5C 242.5,432.167 242.5,431.833 242.5,431.5C 258.122,432.636 273.789,432.802 289.5,432C 287.066,428.475 287.733,425.475 291.5,423C 290.978,422.439 290.645,421.772 290.5,421C 291.833,419.667 293.167,418.333 294.5,417C 292.877,415.124 293.21,413.79 295.5,413C 294.09,412.632 293.09,411.799 292.5,410.5C 293.046,408.236 293.046,406.236 292.5,404.5 Z"/></g>
<g><path style="opacity:1" fill="#e8c15b" d="M 271.5,404.5 C 278.5,404.5 285.5,404.5 292.5,404.5C 293.046,406.236 293.046,408.236 292.5,410.5C 293.09,411.799 294.09,412.632 295.5,413C 293.21,413.79 292.877,415.124 294.5,417C 293.167,418.333 291.833,419.667 290.5,421C 290.645,421.772 290.978,422.439 291.5,423C 287.733,425.475 287.066,428.475 289.5,432C 273.789,432.802 258.122,432.636 242.5,431.5C 236.535,425.625 237.535,422.792 245.5,423C 240.609,420.943 237.276,417.443 235.5,412.5C 237.896,408.797 241.23,406.297 245.5,405C 254.16,404.5 262.827,404.334 271.5,404.5 Z"/></g>
<g><path style="opacity:1" fill="#f0d06f" d="M 206.5,402.5 C 216.671,403.039 226.837,403.705 237,404.5C 248.663,403.34 260.163,403.34 271.5,404.5C 262.827,404.334 254.16,404.5 245.5,405C 241.23,406.297 237.896,408.797 235.5,412.5C 237.276,417.443 240.609,420.943 245.5,423C 237.535,422.792 236.535,425.625 242.5,431.5C 242.5,431.833 242.5,432.167 242.5,432.5C 240.236,433.219 237.903,433.552 235.5,433.5C 235.716,435.681 234.883,437.347 233,438.5C 231.387,437.378 230.22,437.878 229.5,440C 225.184,440.653 221.017,441.82 217,443.5C 215.113,441.31 212.947,441.143 210.5,443C 211.766,443.309 212.933,443.809 214,444.5C 214.688,445.332 214.521,445.998 213.5,446.5C 211.184,445.504 209.517,443.837 208.5,441.5C 206.979,441.88 205.313,442.046 203.5,442C 202.655,443.558 203.321,444.558 205.5,445C 203.473,446.396 203.14,448.062 204.5,450C 202.527,450.495 200.527,450.662 198.5,450.5C 199.956,442.262 200.956,433.929 201.5,425.5C 202.72,417.632 204.387,409.966 206.5,402.5 Z"/></g>
<g><path style="opacity:1" fill="#b8a358" d="M 206.5,402.5 C 249.683,401.127 293.016,401.461 336.5,403.5C 333.138,414.26 330.805,425.26 329.5,436.5C 320.833,436.5 312.167,436.5 303.5,436.5C 283.167,436.5 262.833,436.5 242.5,436.5C 270.995,435.502 299.662,435.169 328.5,435.5C 329.339,425.083 330.672,414.75 332.5,404.5C 319.167,404.5 305.833,404.5 292.5,404.5C 285.5,404.5 278.5,404.5 271.5,404.5C 260.163,403.34 248.663,403.34 237,404.5C 226.837,403.705 216.671,403.039 206.5,402.5 Z"/></g>
<g><path style="opacity:1" fill="#e3c05f" d="M 230.5,352.5 C 231.312,355.275 232.979,357.442 235.5,359C 234.142,359.934 232.808,360.768 231.5,361.5C 231.218,362.778 230.551,363.778 229.5,364.5C 220.509,366.497 211.509,368.664 202.5,371C 192.83,375.244 183.496,380.078 174.5,385.5C 173.952,383.606 172.952,381.94 171.5,380.5C 172.59,379.391 172.59,378.391 171.5,377.5C 170.167,378.167 168.833,378.833 167.5,379.5C 166.808,378.975 166.308,378.308 166,377.5C 165.329,378.252 164.496,378.586 163.5,378.5C 165.647,376.53 167.98,374.697 170.5,373C 185.864,364.469 201.864,357.969 218.5,353.5C 222.466,352.838 226.466,352.505 230.5,352.5 Z"/></g>
<g><path style="opacity:1" fill="#a48a4a" d="M 286.5,362.5 C 267.371,360.676 248.371,361.343 229.5,364.5C 230.551,363.778 231.218,362.778 231.5,361.5C 247.13,359.873 262.796,359.373 278.5,360C 281.379,360.546 284.046,361.379 286.5,362.5 Z"/></g>
<g><path style="opacity:1" fill="#d4ac47" d="M 275.5,349.5 C 286.068,349.283 296.401,350.616 306.5,353.5C 309.912,355.598 313.578,357.431 317.5,359C 315.728,360.487 313.728,360.82 311.5,360C 309.949,356.64 309.449,356.807 310,360.5C 311.586,361.376 313.086,362.376 314.5,363.5C 314.291,364.086 313.957,364.586 313.5,365C 316.194,367.552 315.527,368.719 311.5,368.5C 302.951,366.861 294.618,364.861 286.5,362.5C 284.046,361.379 281.379,360.546 278.5,360C 262.796,359.373 247.13,359.873 231.5,361.5C 232.808,360.768 234.142,359.934 235.5,359C 232.979,357.442 231.312,355.275 230.5,352.5C 231.93,352.421 233.264,352.754 234.5,353.5C 247.919,350.564 261.586,349.231 275.5,349.5 Z"/></g>
<g><path style="opacity:1" fill="#af934b" d="M 275.5,349.5 C 261.586,349.231 247.919,350.564 234.5,353.5C 233.264,352.754 231.93,352.421 230.5,352.5C 226.466,352.505 222.466,352.838 218.5,353.5C 222.621,352.015 226.954,350.849 231.5,350C 244.124,348.27 256.79,347.604 269.5,348C 271.708,348.191 273.708,348.691 275.5,349.5 Z"/></g>
<g><path style="opacity:1" fill="#d6b45b" d="M 201.5,425.5 C 200.956,433.929 199.956,442.262 198.5,450.5C 199.772,453.726 200.439,456.893 200.5,460C 197.769,461.73 195.769,464.063 194.5,467C 193.927,472.727 193.26,478.393 192.5,484C 192.833,484.333 193.167,484.667 193.5,485C 192.437,486.188 191.103,486.688 189.5,486.5C 188.445,492.111 187.779,497.778 187.5,503.5C 189.46,504.138 191.293,504.138 193,503.5C 196.789,506.432 197.955,505.599 196.5,501C 199.502,498.105 199.835,495.105 197.5,492C 199.907,486.284 202.574,486.117 205.5,491.5C 204.477,493.895 205.477,494.895 208.5,494.5C 208.772,490.336 211.106,488.503 215.5,489C 214.619,488.292 213.953,487.458 213.5,486.5C 214.94,487.363 216.274,487.363 217.5,486.5C 217.833,487 218.167,487.5 218.5,488C 216.191,490.781 213.191,492.448 209.5,493C 211.158,493.725 211.658,494.892 211,496.5C 203.038,495.492 202.538,497.158 209.5,501.5C 209.291,502.086 208.957,502.586 208.5,503C 206.167,503.333 203.833,503.667 201.5,504C 202.833,506.333 202.833,508.667 201.5,511C 198.913,510.938 196.246,511.271 193.5,512C 192.788,510.575 192.621,509.075 193,507.5C 192.439,508.022 191.772,508.355 191,508.5C 188.217,507.224 186.384,505.224 185.5,502.5C 190.526,476.648 195.859,450.981 201.5,425.5 Z"/></g>
<g><path style="opacity:0.459" fill="#2f2f25" d="M 961.5,471.5 C 961.586,472.496 961.252,473.329 960.5,474C 950.839,474.5 941.172,474.666 931.5,474.5C 932.161,514.181 931.494,553.514 929.5,592.5C 929.333,552.165 929.5,511.832 930,471.5C 940.598,470.171 951.098,470.171 961.5,471.5 Z"/></g>
<g><path style="opacity:0.871" fill="#41403b" d="M 961.5,471.5 C 962.167,476.167 962.833,480.833 963.5,485.5C 962.157,487.305 961.324,489.305 961,491.5C 959.809,486.233 959.309,480.899 959.5,475.5C 950.5,475.5 941.5,475.5 932.5,475.5C 932.5,513.5 932.5,551.5 932.5,589.5C 941.5,589.5 950.5,589.5 959.5,589.5C 959.333,574.163 959.5,558.83 960,543.5C 960.333,559.5 960.667,575.5 961,591.5C 961.671,592.252 962.504,592.586 963.5,592.5C 952.167,593.833 940.833,593.833 929.5,592.5C 931.494,553.514 932.161,514.181 931.5,474.5C 941.172,474.666 950.839,474.5 960.5,474C 961.252,473.329 961.586,472.496 961.5,471.5 Z"/></g>
<g><path style="opacity:1" fill="#e9c25d" d="M 235.5,465.5 C 235.042,468.394 235.709,470.894 237.5,473C 243.484,474.031 249.484,474.865 255.5,475.5C 255.579,476.93 255.246,478.264 254.5,479.5C 255.376,480.251 256.376,480.751 257.5,481C 255.89,482.495 254.224,482.661 252.5,481.5C 252.505,484.57 251.505,487.57 249.5,490.5C 248.833,490.833 248.167,491.167 247.5,491.5C 245.751,488.873 244.084,488.873 242.5,491.5C 244.149,492.148 245.482,493.148 246.5,494.5C 242.91,494.968 239.91,496.468 237.5,499C 238.858,499.934 240.192,500.768 241.5,501.5C 236.786,501.173 232.12,501.507 227.5,502.5C 226.833,503.167 226.167,503.833 225.5,504.5C 226.556,508.471 226.556,512.471 225.5,516.5C 225.889,519.553 225.223,522.22 223.5,524.5C 222.5,524.5 221.5,524.5 220.5,524.5C 220.313,526.564 219.813,528.564 219,530.5C 217.421,528.959 215.587,527.792 213.5,527C 213.167,526 212.833,525 212.5,524C 211.167,524 209.833,524 208.5,524C 209.755,521.616 211.588,519.783 214,518.5C 215.826,519.01 215.993,519.844 214.5,521C 215.759,521.982 217.092,522.315 218.5,522C 217.268,518.81 215.935,515.643 214.5,512.5C 213.311,511.571 211.978,511.238 210.5,511.5C 211.348,513.481 211.848,515.481 212,517.5C 211.586,517.957 211.086,518.291 210.5,518.5C 209.476,517.147 208.143,516.48 206.5,516.5C 207.379,520.757 207.712,524.924 207.5,529C 204.207,531.242 200.54,532.409 196.5,532.5C 196.137,534.911 197.137,536.411 199.5,537C 199.167,537.333 198.833,537.667 198.5,538C 195.682,537.073 192.682,536.573 189.5,536.5C 189.5,537.5 189.5,538.5 189.5,539.5C 190.822,539.33 191.989,539.663 193,540.5C 196.673,545.819 195.673,547.153 190,544.5C 189.055,544.905 188.388,545.572 188,546.5C 186.111,545.903 184.278,545.569 182.5,545.5C 183.908,544.757 185.241,543.923 186.5,543C 184.188,541.686 182.188,540.019 180.5,538C 182.123,535.614 183.456,533.114 184.5,530.5C 184.471,528.971 183.804,527.804 182.5,527C 183.38,525.644 183.714,524.144 183.5,522.5C 184.037,516.15 184.704,509.817 185.5,503.5C 185.5,503.167 185.5,502.833 185.5,502.5C 186.384,505.224 188.217,507.224 191,508.5C 191.772,508.355 192.439,508.022 193,507.5C 192.621,509.075 192.788,510.575 193.5,512C 196.246,511.271 198.913,510.938 201.5,511C 202.833,508.667 202.833,506.333 201.5,504C 203.833,503.667 206.167,503.333 208.5,503C 208.957,502.586 209.291,502.086 209.5,501.5C 202.538,497.158 203.038,495.492 211,496.5C 211.658,494.892 211.158,493.725 209.5,493C 213.191,492.448 216.191,490.781 218.5,488C 218.167,487.5 217.833,487 217.5,486.5C 216.274,487.363 214.94,487.363 213.5,486.5C 212.957,486.44 212.624,486.107 212.5,485.5C 214.023,481.689 215.689,478.022 217.5,474.5C 218.948,476.667 220.115,479 221,481.5C 222.425,480.788 223.925,480.621 225.5,481C 226.305,479.028 227.639,477.528 229.5,476.5C 230.478,476.977 231.311,477.643 232,478.5C 231.598,476.126 231.764,473.793 232.5,471.5C 230.062,469.344 229.895,467.011 232,464.5C 232.333,464.833 232.667,465.167 233,465.5C 234.071,462.887 234.905,462.887 235.5,465.5 Z"/></g>
<g><path style="opacity:1" fill="#a39145" d="M 305.5,496.5 C 305.756,498.792 305.423,500.959 304.5,503C 279.16,503.167 253.827,503.667 228.5,504.5C 228.079,508.78 227.079,512.78 225.5,516.5C 226.556,512.471 226.556,508.471 225.5,504.5C 226.167,503.833 226.833,503.167 227.5,502.5C 232.12,501.507 236.786,501.173 241.5,501.5C 262.167,501.5 282.833,501.5 303.5,501.5C 303.12,499.302 303.787,497.635 305.5,496.5 Z"/></g>
<g><path style="opacity:1" fill="#ecce6f" d="M 174.5,385.5 C 149.996,402.65 130.996,424.317 117.5,450.5C 115.903,451.737 114.737,453.404 114,455.5C 112.4,462.143 110.066,468.476 107,474.5C 102.131,496.261 101.298,517.927 104.5,539.5C 104.802,542.373 105.469,545.039 106.5,547.5C 109.498,558.162 112.498,568.829 115.5,579.5C 111.39,581.671 109.39,585.171 109.5,590C 111.278,593.379 112.611,596.879 113.5,600.5C 101.986,582.636 94.9858,562.969 92.5,541.5C 91.6018,528.859 91.2685,516.192 91.5,503.5C 91.4013,500.763 91.7347,498.096 92.5,495.5C 93.29,496.609 93.79,497.942 94,499.5C 94.1837,486.765 97.1837,474.765 103,463.5C 103.604,456.876 105.104,450.543 107.5,444.5C 118.111,423.027 132.444,404.194 150.5,388C 154.73,384.591 159.063,381.424 163.5,378.5C 164.496,378.586 165.329,378.252 166,377.5C 166.308,378.308 166.808,378.975 167.5,379.5C 168.833,378.833 170.167,378.167 171.5,377.5C 172.59,378.391 172.59,379.391 171.5,380.5C 172.952,381.94 173.952,383.606 174.5,385.5 Z"/></g>
<g><path style="opacity:1" fill="#b09e5f" d="M 185.5,503.5 C 184.704,509.817 184.037,516.15 183.5,522.5C 181.953,524.968 180.62,527.635 179.5,530.5C 180.504,523.48 181.671,516.48 183,509.5C 183.24,507.148 184.073,505.148 185.5,503.5 Z"/></g>
<g><path style="opacity:1" fill="#e0ba54" d="M 223.5,524.5 C 223.5,528.167 223.5,531.833 223.5,535.5C 230.5,535.5 237.5,535.5 244.5,535.5C 248.182,535.335 251.848,535.501 255.5,536C 252.118,536.176 248.785,536.676 245.5,537.5C 246.328,538.415 247.328,539.081 248.5,539.5C 251.276,537.87 254.276,537.203 257.5,537.5C 258.496,541.554 258.162,545.554 256.5,549.5C 254.517,549.157 253.183,549.824 252.5,551.5C 233.294,557.625 214.294,564.459 195.5,572C 189.498,575.909 183.165,579.076 176.5,581.5C 175.167,581.5 173.833,581.5 172.5,581.5C 173.616,570.294 175.782,559.294 179,548.5C 179.499,542.509 179.666,536.509 179.5,530.5C 180.62,527.635 181.953,524.968 183.5,522.5C 183.714,524.144 183.38,525.644 182.5,527C 183.804,527.804 184.471,528.971 184.5,530.5C 183.456,533.114 182.123,535.614 180.5,538C 182.188,540.019 184.188,541.686 186.5,543C 185.241,543.923 183.908,544.757 182.5,545.5C 184.278,545.569 186.111,545.903 188,546.5C 188.388,545.572 189.055,544.905 190,544.5C 195.673,547.153 196.673,545.819 193,540.5C 191.989,539.663 190.822,539.33 189.5,539.5C 189.5,538.5 189.5,537.5 189.5,536.5C 192.682,536.573 195.682,537.073 198.5,538C 198.833,537.667 199.167,537.333 199.5,537C 197.137,536.411 196.137,534.911 196.5,532.5C 200.54,532.409 204.207,531.242 207.5,529C 207.712,524.924 207.379,520.757 206.5,516.5C 208.143,516.48 209.476,517.147 210.5,518.5C 211.086,518.291 211.586,517.957 212,517.5C 211.848,515.481 211.348,513.481 210.5,511.5C 211.978,511.238 213.311,511.571 214.5,512.5C 215.935,515.643 217.268,518.81 218.5,522C 217.092,522.315 215.759,521.982 214.5,521C 215.993,519.844 215.826,519.01 214,518.5C 211.588,519.783 209.755,521.616 208.5,524C 209.833,524 211.167,524 212.5,524C 212.833,525 213.167,526 213.5,527C 215.587,527.792 217.421,528.959 219,530.5C 219.813,528.564 220.313,526.564 220.5,524.5C 221.5,524.5 222.5,524.5 223.5,524.5 Z"/></g>
<g><path style="opacity:1" fill="#4a4827" d="M 91.5,503.5 C 91.2685,516.192 91.6018,528.859 92.5,541.5C 91.7784,541.082 91.2784,540.416 91,539.5C 90.1737,527.326 90.3403,515.326 91.5,503.5 Z"/></g>
<g><path style="opacity:1" fill="#645531" d="M 331.5,532.5 C 319.655,532.172 307.988,532.505 296.5,533.5C 286.5,533.5 276.5,533.5 266.5,533.5C 288.151,531.611 309.818,531.278 331.5,532.5 Z"/></g>
<g><path style="opacity:1" fill="#b69f52" d="M 296.5,533.5 C 307.988,532.505 319.655,532.172 331.5,532.5C 336.167,532.5 340.833,532.5 345.5,532.5C 353.758,533.06 362.091,533.894 370.5,535C 359.162,535.486 347.829,535.986 336.5,536.5C 333.742,535.239 330.742,534.406 327.5,534C 317.172,533.5 306.839,533.334 296.5,533.5 Z"/></g>
<g><path style="opacity:1" fill="#d0a946" d="M 266.5,533.5 C 276.5,533.5 286.5,533.5 296.5,533.5C 306.839,533.334 317.172,533.5 327.5,534C 330.742,534.406 333.742,535.239 336.5,536.5C 336.5,536.833 336.5,537.167 336.5,537.5C 307.916,538.536 279.916,543.203 252.5,551.5C 253.183,549.824 254.517,549.157 256.5,549.5C 258.162,545.554 258.496,541.554 257.5,537.5C 254.276,537.203 251.276,537.87 248.5,539.5C 247.328,539.081 246.328,538.415 245.5,537.5C 248.785,536.676 252.118,536.176 255.5,536C 251.848,535.501 248.182,535.335 244.5,535.5C 251.671,534.642 259.005,533.976 266.5,533.5 Z"/></g>
<g><path style="opacity:1" fill="#2c2917" d="M 336.5,537.5 C 336.5,537.167 336.5,536.833 336.5,536.5C 347.829,535.986 359.162,535.486 370.5,535C 362.091,533.894 353.758,533.06 345.5,532.5C 354.797,532.955 363.964,532.289 373,530.5C 377.267,529.779 379.267,531.446 379,535.5C 378.667,535.167 378.333,534.833 378,534.5C 376.509,536.004 374.676,536.837 372.5,537C 360.505,537.5 348.505,537.667 336.5,537.5 Z"/></g>
<g><path style="opacity:1" fill="#746a47" d="M 104.5,499.5 C 104.082,515.561 104.749,531.561 106.5,547.5C 105.469,545.039 104.802,542.373 104.5,539.5C 103.233,526.02 103.233,512.686 104.5,499.5 Z"/></g>
<g><path style="opacity:1" fill="#1a1a15" d="M 412.5,559.5 C 401.91,599.398 379.244,630.565 344.5,653C 332.576,659.46 320.243,665.127 307.5,670C 299.95,672.147 292.283,673.647 284.5,674.5C 272.252,676.449 259.918,676.949 247.5,676C 248.056,675.617 248.389,675.117 248.5,674.5C 254.616,656.325 263.116,639.325 274,623.5C 282.87,612.453 293.37,603.453 305.5,596.5C 316.669,590.191 328.669,585.691 341.5,583C 326.521,581.828 312.187,584.161 298.5,590C 297.619,590.708 296.953,591.542 296.5,592.5C 263.745,607.255 240.078,630.922 225.5,663.5C 223.366,664.703 222.032,666.537 221.5,669C 219.866,669.494 218.199,669.66 216.5,669.5C 212.737,669.143 209.07,668.31 205.5,667C 200.167,664.333 194.833,661.667 189.5,659C 188.196,658.196 187.529,657.029 187.5,655.5C 188.178,653.484 188.844,651.484 189.5,649.5C 204.625,625.369 223.959,605.036 247.5,588.5C 272.45,572.532 299.45,561.198 328.5,554.5C 334.925,554.87 341.258,554.37 347.5,553C 346.692,552.692 346.025,552.192 345.5,551.5C 353.917,550.431 362.25,548.931 370.5,547C 377.027,546.266 383.527,546.433 390,547.5C 401.012,543.939 400.179,542.605 387.5,543.5C 387.611,542.883 387.944,542.383 388.5,542C 391.5,541.667 394.5,541.333 397.5,541C 397.167,540.667 396.833,540.333 396.5,540C 399.146,539.503 401.813,539.336 404.5,539.5C 404.672,541.492 404.005,543.158 402.5,544.5C 403.689,545.429 405.022,545.762 406.5,545.5C 407.019,538.032 407.685,537.866 408.5,545C 408.312,548.81 407.646,552.477 406.5,556C 407.075,561.585 407.742,561.752 408.5,556.5C 409.5,556.5 410.5,556.5 411.5,556.5C 411.263,557.791 411.596,558.791 412.5,559.5 Z"/></g>
<g><path style="opacity:1" fill="#967834" d="M 418.5,505.5 C 419.661,518.994 419.827,532.66 419,546.5C 416.682,549.594 415.182,552.927 414.5,556.5C 415.532,550.177 416.699,543.844 418,537.5C 418.5,526.839 418.667,516.172 418.5,505.5 Z"/></g>
<g><path style="opacity:1" fill="#a08746" d="M 387.5,543.5 C 373.521,544.839 359.521,546.839 345.5,549.5C 343.866,548.839 342.033,548.506 340,548.5C 331.843,549.624 323.676,550.624 315.5,551.5C 339.066,546.287 363.066,543.62 387.5,543.5 Z"/></g>
<g><path style="opacity:1" fill="#302917" d="M 387.5,543.5 C 400.179,542.605 401.012,543.939 390,547.5C 383.527,546.433 377.027,546.266 370.5,547C 362.25,548.931 353.917,550.431 345.5,551.5C 346.025,552.192 346.692,552.692 347.5,553C 341.258,554.37 334.925,554.87 328.5,554.5C 334.089,552.925 339.756,551.258 345.5,549.5C 359.521,546.839 373.521,544.839 387.5,543.5 Z"/></g>
<g><path style="opacity:1" fill="#cab15c" d="M 179.5,530.5 C 179.666,536.509 179.499,542.509 179,548.5C 175.782,559.294 173.616,570.294 172.5,581.5C 173.833,581.5 175.167,581.5 176.5,581.5C 174.413,583.599 172.08,585.265 169.5,586.5C 172.19,567.598 175.523,548.931 179.5,530.5 Z"/></g>
<g><path style="opacity:1" fill="#1d1e1b" d="M 503.5,423.5 C 504.318,470.834 504.985,518.334 505.5,566C 505.493,575.075 505.16,584.075 504.5,593C 539.426,592.847 574.426,592.347 609.5,591.5C 575.845,590.172 542.179,589.172 508.5,588.5C 509,588.167 509.5,587.833 510,587.5C 542.135,588.489 574.302,588.822 606.5,588.5C 606.5,587.5 606.5,586.5 606.5,585.5C 483.833,585.167 483.833,584.833 606.5,584.5C 607.26,578.196 607.593,571.863 607.5,565.5C 608.675,565.719 609.675,565.386 610.5,564.5C 604.333,564.167 598.167,563.833 592,563.5C 573.586,564.3 555.252,564.633 537,564.5C 536.5,550.171 536.333,535.837 536.5,521.5C 557.844,521.167 579.177,521.5 600.5,522.5C 579.671,523.167 559.004,523.833 538.5,524.5C 538.5,536.833 538.5,549.167 538.5,561.5C 563.167,561.5 587.833,561.5 612.5,561.5C 612.5,572.5 612.5,583.5 612.5,594.5C 576.167,594.5 539.833,594.5 503.5,594.5C 503.5,537.5 503.5,480.5 503.5,423.5 Z"/></g>
<g><path style="opacity:1" fill="#b4903b" d="M 305.5,596.5 C 307.158,594.794 307.825,592.961 307.5,591C 303.567,590.116 299.901,590.616 296.5,592.5C 296.953,591.542 297.619,590.708 298.5,590C 312.187,584.161 326.521,581.828 341.5,583C 328.669,585.691 316.669,590.191 305.5,596.5 Z"/></g>
<g><path style="opacity:1" fill="#bc9133" d="M 393.5,410.5 C 398.189,415.703 402.356,421.37 406,427.5C 409.533,436.232 413.866,444.565 419,452.5C 430.4,479.137 434.567,506.804 431.5,535.5C 424.75,582.344 403.416,621.01 367.5,651.5C 356.124,660.052 344.124,667.552 331.5,674C 320.643,677.095 309.976,680.761 299.5,685C 295.786,685.32 292.119,685.82 288.5,686.5C 279.494,686.666 270.494,686.5 261.5,686C 260.689,683.709 261.523,681.875 264,680.5C 264.483,679.552 264.649,678.552 264.5,677.5C 270.229,677.788 275.896,677.454 281.5,676.5C 281.489,677.441 281.989,678.108 283,678.5C 284.171,677.66 285.338,676.827 286.5,676C 285.584,675.722 284.918,675.222 284.5,674.5C 292.283,673.647 299.95,672.147 307.5,670C 320.243,665.127 332.576,659.46 344.5,653C 379.244,630.565 401.91,599.398 412.5,559.5C 412.932,558.29 413.599,557.29 414.5,556.5C 415.182,552.927 416.682,549.594 419,546.5C 419.827,532.66 419.661,518.994 418.5,505.5C 415.352,475.357 405.019,448.024 387.5,423.5C 389.481,424.348 391.481,424.848 393.5,425C 394.772,422.956 394.439,421.122 392.5,419.5C 393.325,418.614 394.325,418.281 395.5,418.5C 395.713,415.549 395.046,412.882 393.5,410.5 Z"/></g>
<g><path style="opacity:1" fill="#d6ac47" d="M 345.5,549.5 C 339.756,551.258 334.089,552.925 328.5,554.5C 299.45,561.198 272.45,572.532 247.5,588.5C 223.959,605.036 204.625,625.369 189.5,649.5C 185.737,651.454 184.737,654.454 186.5,658.5C 185.817,661.461 184.984,661.795 184,659.5C 183.5,660.667 182.667,661.5 181.5,662C 183.221,663.527 185.221,664.527 187.5,665C 185.833,665.667 184.167,665.667 182.5,665C 179.478,662.812 176.144,661.312 172.5,660.5C 171.416,660.685 170.416,661.018 169.5,661.5C 158.556,655.518 148.889,647.851 140.5,638.5C 142.749,639.231 144.916,640.231 147,641.5C 148.416,640.427 149.75,640.427 151,641.5C 153.93,640.095 154.097,638.262 151.5,636C 151.833,635.667 152.167,635.333 152.5,635C 148.194,633.692 144.861,631.192 142.5,627.5C 142.977,626.522 143.643,625.689 144.5,625C 142.072,623.982 140.738,622.148 140.5,619.5C 146.48,625.145 152.48,630.812 158.5,636.5C 165.652,628.848 172.985,621.348 180.5,614C 191.833,606 203.167,598 214.5,590C 245.957,571.348 279.624,558.515 315.5,551.5C 323.676,550.624 331.843,549.624 340,548.5C 342.033,548.506 343.866,548.839 345.5,549.5 Z"/></g>
<g><path style="opacity:0.48" fill="#32312d" d="M 910.5,519.5 C 911.451,544.145 911.785,568.812 911.5,593.5C 904.167,593.5 896.833,593.5 889.5,593.5C 887.708,592.691 885.708,592.191 883.5,592C 890.638,592.012 897.638,591.179 904.5,589.5C 905.672,589.919 906.672,590.585 907.5,591.5C 908.333,570.508 908.833,549.508 909,528.5C 909.181,525.305 909.681,522.305 910.5,519.5 Z"/></g>
<g><path style="opacity:1" fill="#ddb855" d="M 115.5,579.5 C 121.976,593.821 130.31,607.155 140.5,619.5C 140.738,622.148 142.072,623.982 144.5,625C 143.643,625.689 142.977,626.522 142.5,627.5C 144.861,631.192 148.194,633.692 152.5,635C 152.167,635.333 151.833,635.667 151.5,636C 154.097,638.262 153.93,640.095 151,641.5C 149.75,640.427 148.416,640.427 147,641.5C 144.916,640.231 142.749,639.231 140.5,638.5C 129.137,627.477 120.137,614.81 113.5,600.5C 112.611,596.879 111.278,593.379 109.5,590C 109.39,585.171 111.39,581.671 115.5,579.5 Z"/></g>
<g><path style="opacity:1" fill="#ca9e3a" d="M 305.5,596.5 C 293.37,603.453 282.87,612.453 274,623.5C 263.116,639.325 254.616,656.325 248.5,674.5C 246.974,675.105 245.974,676.271 245.5,678C 247.81,678.497 250.143,678.663 252.5,678.5C 252.16,681.144 252.827,683.477 254.5,685.5C 246.862,686.497 239.196,686.831 231.5,686.5C 213.827,682.664 196.827,676.831 180.5,669C 176.655,666.637 172.989,664.137 169.5,661.5C 170.416,661.018 171.416,660.685 172.5,660.5C 176.144,661.312 179.478,662.812 182.5,665C 184.167,665.667 185.833,665.667 187.5,665C 185.221,664.527 183.221,663.527 181.5,662C 182.667,661.5 183.5,660.667 184,659.5C 184.984,661.795 185.817,661.461 186.5,658.5C 184.737,654.454 185.737,651.454 189.5,649.5C 188.844,651.484 188.178,653.484 187.5,655.5C 187.529,657.029 188.196,658.196 189.5,659C 194.833,661.667 200.167,664.333 205.5,667C 209.07,668.31 212.737,669.143 216.5,669.5C 218.288,670.622 220.288,670.789 222.5,670C 223.412,667.749 224.412,665.583 225.5,663.5C 240.078,630.922 263.745,607.255 296.5,592.5C 299.901,590.616 303.567,590.116 307.5,591C 307.825,592.961 307.158,594.794 305.5,596.5 Z"/></g>
<g><path style="opacity:1" fill="#755c2a" d="M 225.5,663.5 C 224.412,665.583 223.412,667.749 222.5,670C 220.288,670.789 218.288,670.622 216.5,669.5C 218.199,669.66 219.866,669.494 221.5,669C 222.032,666.537 223.366,664.703 225.5,663.5 Z"/></g>
<g><path style="opacity:1" fill="#ae8a38" d="M 248.5,674.5 C 248.389,675.117 248.056,675.617 247.5,676C 259.918,676.949 272.252,676.449 284.5,674.5C 284.918,675.222 285.584,675.722 286.5,676C 285.338,676.827 284.171,677.66 283,678.5C 281.989,678.108 281.489,677.441 281.5,676.5C 275.896,677.454 270.229,677.788 264.5,677.5C 264.649,678.552 264.483,679.552 264,680.5C 261.523,681.875 260.689,683.709 261.5,686C 270.494,686.5 279.494,686.666 288.5,686.5C 278.878,687.997 269.044,688.664 259,688.5C 249.615,688.698 240.448,688.032 231.5,686.5C 239.196,686.831 246.862,686.497 254.5,685.5C 252.827,683.477 252.16,681.144 252.5,678.5C 250.143,678.663 247.81,678.497 245.5,678C 245.974,676.271 246.974,675.105 248.5,674.5 Z"/></g>
</svg>
