<?xml version="1.0" encoding="UTF-8"?>
<!DOCTYPE svg PUBLIC "-//W3C//DTD SVG 1.1//EN" "http://www.w3.org/Graphics/SVG/1.1/DTD/svg11.dtd">
<svg xmlns="http://www.w3.org/2000/svg" version="1.1" width="640px" height="480px" style="shape-rendering:geometricPrecision; text-rendering:geometricPrecision; image-rendering:optimizeQuality; fill-rule:evenodd; clip-rule:evenodd" xmlns:xlink="http://www.w3.org/1999/xlink">
<g><path style="opacity:1" fill="#8039d5" d="M 327.5,50.5 C 323.247,48.6289 318.914,48.2955 314.5,49.5C 316.117,48.0277 318.117,47.361 320.5,47.5C 323.501,47.1716 325.834,48.1716 327.5,50.5 Z"/></g>
<g><path style="opacity:1" fill="#6602fb" d="M 327.5,50.5 C 328.36,54.4338 328.693,58.4338 328.5,62.5C 327.448,62.3505 326.448,62.5172 325.5,63C 326.337,64.0113 326.67,65.1779 326.5,66.5C 322.818,66.6653 319.152,66.4986 315.5,66C 314.584,65.6258 313.75,65.1258 313,64.5C 312.31,62.2848 311.476,60.1181 310.5,58C 311.712,55.0773 313.045,52.244 314.5,49.5C 318.914,48.2955 323.247,48.6289 327.5,50.5 Z"/></g>
<g><path style="opacity:1" fill="#813ed4" d="M 269.5,65.5 C 264.3,61.0332 258.633,60.3665 252.5,63.5C 256.91,58.7964 261.91,58.2964 267.5,62C 268.823,62.8159 269.489,63.9826 269.5,65.5 Z"/></g>
<g><path style="opacity:1" fill="#7a32db" d="M 314.5,49.5 C 313.045,52.244 311.712,55.0773 310.5,58C 311.476,60.1181 312.31,62.2848 313,64.5C 313.75,65.1258 314.584,65.6258 315.5,66C 319.152,66.4986 322.818,66.6653 326.5,66.5C 320.95,70.5073 315.784,69.8406 311,64.5C 307.011,58.1279 308.178,53.1279 314.5,49.5 Z"/></g>
<g><path style="opacity:1" fill="#7531c5" d="M 383.5,61.5 C 379.556,61.1134 375.889,61.78 372.5,63.5C 375.648,59.4028 379.315,58.7361 383.5,61.5 Z"/></g>
<g><path style="opacity:1" fill="#6604f9" d="M 269.5,65.5 C 269.5,69.1667 269.5,72.8333 269.5,76.5C 269.167,77.5 268.5,78.1667 267.5,78.5C 264.86,78.5533 262.36,79.22 260,80.5C 257.863,79.9233 255.696,79.59 253.5,79.5C 251.818,76.9561 250.818,74.1228 250.5,71C 251.336,68.5103 252.002,66.0103 252.5,63.5C 258.633,60.3665 264.3,61.0332 269.5,65.5 Z"/></g>
<g><path style="opacity:1" fill="#772fda" d="M 327.5,50.5 C 333.029,56.1405 332.696,61.4738 326.5,66.5C 326.67,65.1779 326.337,64.0113 325.5,63C 326.448,62.5172 327.448,62.3505 328.5,62.5C 328.693,58.4338 328.36,54.4338 327.5,50.5 Z"/></g>
<g><path style="opacity:1" fill="#670af8" d="M 383.5,61.5 C 390.541,65.1353 392.041,70.4687 388,77.5C 387.184,78.8228 386.017,79.4894 384.5,79.5C 381.518,79.9629 378.518,80.2962 375.5,80.5C 373.693,79.1638 372.193,77.4971 371,75.5C 370.083,71.2381 370.583,67.2381 372.5,63.5C 375.889,61.78 379.556,61.1134 383.5,61.5 Z"/></g>
<g><path style="opacity:1" fill="#7229ce" d="M 372.5,63.5 C 370.583,67.2381 370.083,71.2381 371,75.5C 372.193,77.4971 373.693,79.1638 375.5,80.5C 371.921,80.0894 369.754,78.0894 369,74.5C 367.663,69.9159 368.829,66.2493 372.5,63.5 Z"/></g>
<g><path style="opacity:1" fill="#7a34d2" d="M 252.5,63.5 C 252.002,66.0103 251.336,68.5103 250.5,71C 250.818,74.1228 251.818,76.9561 253.5,79.5C 250.448,77.5601 249.115,74.7267 249.5,71C 249.106,67.8318 250.106,65.3318 252.5,63.5 Z"/></g>
<g><path style="opacity:1" fill="#813ad7" d="M 269.5,65.5 C 272.065,69.1347 272.065,72.8014 269.5,76.5C 269.5,72.8333 269.5,69.1667 269.5,65.5 Z"/></g>
<g><path style="opacity:1" fill="#742cd5" d="M 267.5,78.5 C 263.125,83.3633 258.458,83.6966 253.5,79.5C 255.696,79.59 257.863,79.9233 260,80.5C 262.36,79.22 264.86,78.5533 267.5,78.5 Z"/></g>
<g><path style="opacity:1" fill="#934fdf" d="M 384.5,79.5 C 383.054,80.9402 381.221,81.6068 379,81.5C 377.615,81.4857 376.449,81.1524 375.5,80.5C 378.518,80.2962 381.518,79.9629 384.5,79.5 Z"/></g>
<g><path style="opacity:1" fill="#6604f9" d="M 323.5,85.5 C 323.655,88.6092 324.322,91.6092 325.5,94.5C 326.265,95.6119 327.265,96.2786 328.5,96.5C 329.674,97.5137 330.34,98.847 330.5,100.5C 330.031,103.393 331.031,105.393 333.5,106.5C 334.144,112.109 336.144,117.109 339.5,121.5C 339.5,121.833 339.5,122.167 339.5,122.5C 326.816,122.832 314.149,122.499 301.5,121.5C 302.309,119.929 302.643,118.262 302.5,116.5C 306.659,106.849 311.325,97.5157 316.5,88.5C 318.516,87.5141 319.849,85.8474 320.5,83.5C 321.518,84.1925 322.518,84.8592 323.5,85.5 Z"/></g>
<g><path style="opacity:1" fill="#7730d1" d="M 323.5,85.5 C 322.518,84.8592 321.518,84.1925 320.5,83.5C 319.849,85.8474 318.516,87.5141 316.5,88.5C 317.067,85.6971 318.4,83.3637 320.5,81.5C 322.288,82.2826 323.288,83.6159 323.5,85.5 Z"/></g>
<g><path style="opacity:1" fill="#6a1eda" d="M 323.5,85.5 C 325.403,88.9789 327.07,92.6456 328.5,96.5C 327.265,96.2786 326.265,95.6119 325.5,94.5C 324.322,91.6092 323.655,88.6092 323.5,85.5 Z"/></g>
<g><path style="opacity:1" fill="#7733cf" d="M 220.5,97.5 C 207.156,94.1771 202.156,99.1771 205.5,112.5C 201.179,106.557 201.846,101.057 207.5,96C 212.305,93.6953 216.638,94.1953 220.5,97.5 Z"/></g>
<g><path style="opacity:1" fill="#7832d3" d="M 435.5,110.5 C 436.429,105.235 435.096,100.735 431.5,97C 425.663,95.6244 420.829,97.1244 417,101.5C 416.341,104.888 416.508,108.221 417.5,111.5C 413.713,107.49 413.546,103.156 417,98.5C 423.071,93.2345 429.071,93.2345 435,98.5C 437.813,102.593 437.979,106.593 435.5,110.5 Z"/></g>
<g><path style="opacity:1" fill="#6503fa" d="M 435.5,110.5 C 434.5,112.167 433.167,113.5 431.5,114.5C 427.434,114.693 423.434,114.36 419.5,113.5C 418.5,113.167 417.833,112.5 417.5,111.5C 416.508,108.221 416.341,104.888 417,101.5C 420.829,97.1244 425.663,95.6244 431.5,97C 435.096,100.735 436.429,105.235 435.5,110.5 Z"/></g>
<g><path style="opacity:1" fill="#6a10f5" d="M 220.5,97.5 C 222.299,101.903 222.966,106.57 222.5,111.5C 219.717,116.03 215.717,117.53 210.5,116C 208.416,115.303 206.749,114.136 205.5,112.5C 202.156,99.1771 207.156,94.1771 220.5,97.5 Z"/></g>
<g><path style="opacity:1" fill="#7430d1" d="M 220.5,97.5 C 224.24,100.599 225.407,104.599 224,109.5C 223.722,110.416 223.222,111.082 222.5,111.5C 222.966,106.57 222.299,101.903 220.5,97.5 Z"/></g>
<g><path style="opacity:1" fill="#7b33db" d="M 330.5,100.5 C 332.008,102.181 333.008,104.181 333.5,106.5C 331.031,105.393 330.031,103.393 330.5,100.5 Z"/></g>
<g><path style="opacity:1" fill="#8e4cd2" d="M 249.5,105.5 C 250.71,105.932 251.71,106.599 252.5,107.5C 250.821,107.715 249.821,107.048 249.5,105.5 Z"/></g>
<g><path style="opacity:1" fill="#6605fa" d="M 248.5,105.5 C 248.833,105.5 249.167,105.5 249.5,105.5C 249.821,107.048 250.821,107.715 252.5,107.5C 252.414,108.496 252.748,109.329 253.5,110C 257.413,112.125 261.413,113.958 265.5,115.5C 268.45,116.308 271.117,117.642 273.5,119.5C 274.985,122.083 277.318,123.416 280.5,123.5C 281.933,125.558 282.6,127.892 282.5,130.5C 275.425,134.2 268.092,137.533 260.5,140.5C 260.5,141.833 260.5,143.167 260.5,144.5C 259.421,146.543 257.754,147.876 255.5,148.5C 253.818,147.173 252.485,145.506 251.5,143.5C 251.5,141.5 251.5,139.5 251.5,137.5C 251.097,126.727 250.097,116.061 248.5,105.5 Z"/></g>
<g><path style="opacity:1" fill="#6707f8" d="M 388.5,106.5 C 389.497,106.47 390.164,106.97 390.5,108C 388.877,116.75 388.211,125.583 388.5,134.5C 386.949,138.9 386.116,143.566 386,148.5C 384.641,145.978 382.474,144.645 379.5,144.5C 378.008,141.677 375.674,140.01 372.5,139.5C 367.5,137.336 362.833,134.669 358.5,131.5C 356.078,129.274 356.078,126.94 358.5,124.5C 360.822,122.336 363.489,120.669 366.5,119.5C 368.848,119.408 370.514,118.408 371.5,116.5C 376.665,112.414 382.332,109.08 388.5,106.5 Z"/></g>
<g><path style="opacity:1" fill="#7a33d7" d="M 388.5,106.5 C 389.209,105.596 390.209,105.263 391.5,105.5C 391.289,115.389 390.289,125.056 388.5,134.5C 388.211,125.583 388.877,116.75 390.5,108C 390.164,106.97 389.497,106.47 388.5,106.5 Z"/></g>
<g><path style="opacity:1" fill="#722bd3" d="M 252.5,107.5 C 257.372,109.429 261.705,112.095 265.5,115.5C 261.413,113.958 257.413,112.125 253.5,110C 252.748,109.329 252.414,108.496 252.5,107.5 Z"/></g>
<g><path style="opacity:1" fill="#7025d7" d="M 333.5,106.5 C 335.736,110.645 337.736,114.978 339.5,119.5C 339.5,120.167 339.5,120.833 339.5,121.5C 336.144,117.109 334.144,112.109 333.5,106.5 Z"/></g>
<g><path style="opacity:1" fill="#8442d4" d="M 419.5,113.5 C 423.434,114.36 427.434,114.693 431.5,114.5C 427.24,117.315 423.24,116.982 419.5,113.5 Z"/></g>
<g><path style="opacity:1" fill="#7733d0" d="M 371.5,116.5 C 370.514,118.408 368.848,119.408 366.5,119.5C 367.659,117.75 369.326,116.75 371.5,116.5 Z"/></g>
<g><path style="opacity:1" fill="#8440d0" d="M 273.5,119.5 C 276.032,120.596 278.365,121.929 280.5,123.5C 277.318,123.416 274.985,122.083 273.5,119.5 Z"/></g>
<g><path style="opacity:1" fill="#722ad0" d="M 302.5,116.5 C 302.643,118.262 302.309,119.929 301.5,121.5C 314.149,122.499 326.816,122.832 339.5,122.5C 337.052,123.473 334.385,123.806 331.5,123.5C 320.89,123.277 310.39,123.944 300,125.5C 299.5,125 299,124.5 298.5,124C 299.466,121.231 300.799,118.731 302.5,116.5 Z"/></g>
<g><path style="opacity:1" fill="#8547c7" d="M 339.5,119.5 C 341.721,121.33 341.888,123.33 340,125.5C 337.061,124.872 334.228,124.205 331.5,123.5C 334.385,123.806 337.052,123.473 339.5,122.5C 339.5,122.167 339.5,121.833 339.5,121.5C 339.5,120.833 339.5,120.167 339.5,119.5 Z"/></g>
<g><path style="opacity:1" fill="#7632cf" d="M 358.5,124.5 C 356.078,126.94 356.078,129.274 358.5,131.5C 352.044,129.37 352.044,127.036 358.5,124.5 Z"/></g>
<g><path style="opacity:1" fill="#7c37cf" d="M 248.5,105.5 C 250.097,116.061 251.097,126.727 251.5,137.5C 250.019,130.359 248.853,123.026 248,115.5C 247.194,111.39 247.36,108.057 248.5,105.5 Z"/></g>
<g><path style="opacity:1" fill="#772ddb" d="M 280.5,123.5 C 283.672,124.495 285.505,126.495 286,129.5C 277.092,133.929 268.592,138.929 260.5,144.5C 260.5,143.167 260.5,141.833 260.5,140.5C 268.092,137.533 275.425,134.2 282.5,130.5C 282.6,127.892 281.933,125.558 280.5,123.5 Z"/></g>
<g><path style="opacity:1" fill="#7832d3" d="M 337.5,131.5 C 325.498,130.202 313.498,130.202 301.5,131.5C 313.486,127.609 325.486,127.609 337.5,131.5 Z"/></g>
<g><path style="opacity:1" fill="#660bed" d="M 337.5,131.5 C 338.5,131.5 339.5,131.5 340.5,131.5C 340.953,132.458 341.619,133.292 342.5,134C 346.207,134.737 349.873,135.571 353.5,136.5C 354.007,137.859 355.007,138.859 356.5,139.5C 356,139.833 355.5,140.167 355,140.5C 351.427,138.683 347.593,137.683 343.5,137.5C 339.803,136.992 336.136,136.326 332.5,135.5C 328.104,133.967 323.437,133.3 318.5,133.5C 314.982,133.502 311.649,133.835 308.5,134.5C 305.428,134.817 302.428,134.484 299.5,133.5C 299.863,132.817 300.196,132.15 300.5,131.5C 300.833,131.5 301.167,131.5 301.5,131.5C 313.498,130.202 325.498,130.202 337.5,131.5 Z"/></g>
<g><path style="opacity:1" fill="#7226d8" d="M 300.5,131.5 C 300.196,132.15 299.863,132.817 299.5,133.5C 302.428,134.484 305.428,134.817 308.5,134.5C 308.5,134.833 308.5,135.167 308.5,135.5C 303.4,136.025 298.4,137.025 293.5,138.5C 294.66,137.735 295.66,136.735 296.5,135.5C 295.667,135.167 294.833,134.833 294,134.5C 290.612,135.947 287.112,136.947 283.5,137.5C 288.667,134.332 294.334,132.332 300.5,131.5 Z"/></g>
<g><path style="opacity:1" fill="#833fc8" d="M 332.5,135.5 C 324.475,134.281 316.475,134.281 308.5,135.5C 308.5,135.167 308.5,134.833 308.5,134.5C 311.649,133.835 314.982,133.502 318.5,133.5C 323.437,133.3 328.104,133.967 332.5,135.5 Z"/></g>
<g><path style="opacity:1" fill="#7c36d6" d="M 340.5,131.5 C 345.144,132.599 349.478,134.266 353.5,136.5C 349.873,135.571 346.207,134.737 342.5,134C 341.619,133.292 340.953,132.458 340.5,131.5 Z"/></g>
<g><path style="opacity:1" fill="#7732d1" d="M 388.5,134.5 C 388.781,139.565 388.448,144.565 387.5,149.5C 386.998,150.521 386.332,150.688 385.5,150C 383.237,148.383 381.237,146.55 379.5,144.5C 382.474,144.645 384.641,145.978 386,148.5C 386.116,143.566 386.949,138.9 388.5,134.5 Z"/></g>
<g><path style="opacity:1" fill="#7b38d0" d="M 189.5,142.5 C 185.865,141.886 182.198,141.552 178.5,141.5C 182.429,138.73 186.096,139.063 189.5,142.5 Z"/></g>
<g><path style="opacity:1" fill="#670af0" d="M 293.5,138.5 C 289.635,138.676 285.968,139.676 282.5,141.5C 281.007,142.141 280.007,143.141 279.5,144.5C 278.326,143.486 277.66,142.153 277.5,140.5C 279.181,138.992 281.181,137.992 283.5,137.5C 287.112,136.947 290.612,135.947 294,134.5C 294.833,134.833 295.667,135.167 296.5,135.5C 295.66,136.735 294.66,137.735 293.5,138.5 Z"/></g>
<g><path style="opacity:1" fill="#772fd8" d="M 293.5,138.5 C 288.992,140.676 284.325,142.676 279.5,144.5C 280.007,143.141 281.007,142.141 282.5,141.5C 285.968,139.676 289.635,138.676 293.5,138.5 Z"/></g>
<g><path style="opacity:1" fill="#6d20db" d="M 353.5,136.5 C 358.32,138.074 362.653,140.407 366.5,143.5C 361.879,141.772 360.879,142.772 363.5,146.5C 356.958,143.102 350.291,140.102 343.5,137.5C 347.593,137.683 351.427,138.683 355,140.5C 355.5,140.167 356,139.833 356.5,139.5C 355.007,138.859 354.007,137.859 353.5,136.5 Z"/></g>
<g><path style="opacity:1" fill="#7833cf" d="M 372.5,139.5 C 375.674,140.01 378.008,141.677 379.5,144.5C 376.883,143.214 374.55,141.547 372.5,139.5 Z"/></g>
<g><path style="opacity:1" fill="#7c36d3" d="M 449.5,159.5 C 454.311,160.984 458.978,160.651 463.5,158.5C 467.882,147.188 463.882,141.522 451.5,141.5C 460.013,138.605 465.347,141.772 467.5,151C 466.667,157.833 462.833,161.667 456,162.5C 453.325,162.343 451.159,161.343 449.5,159.5 Z"/></g>
<g><path style="opacity:1" fill="#6704fa" d="M 178.5,141.5 C 182.198,141.552 185.865,141.886 189.5,142.5C 190.5,142.833 191.167,143.5 191.5,144.5C 193.875,150.776 192.542,155.943 187.5,160C 184.773,160.818 182.106,160.652 179.5,159.5C 177.815,158.047 176.149,156.714 174.5,155.5C 174.5,155.167 174.5,154.833 174.5,154.5C 173.535,149.317 174.868,144.984 178.5,141.5 Z"/></g>
<g><path style="opacity:1" fill="#6704fa" d="M 450.5,141.5 C 450.833,141.5 451.167,141.5 451.5,141.5C 463.882,141.522 467.882,147.188 463.5,158.5C 458.978,160.651 454.311,160.984 449.5,159.5C 445.347,153.316 445.681,147.316 450.5,141.5 Z"/></g>
<g><path style="opacity:1" fill="#813ad3" d="M 450.5,141.5 C 445.681,147.316 445.347,153.316 449.5,159.5C 443.996,155.117 443.162,149.784 447,143.5C 447.816,142.177 448.983,141.511 450.5,141.5 Z"/></g>
<g><path style="opacity:1" fill="#8547c8" d="M 251.5,143.5 C 252.485,145.506 253.818,147.173 255.5,148.5C 255.189,149.478 254.522,150.145 253.5,150.5C 252.365,148.293 251.699,145.96 251.5,143.5 Z"/></g>
<g><path style="opacity:1" fill="#6a13eb" d="M 366.5,143.5 C 372.942,146.398 378.275,150.731 382.5,156.5C 382.703,158.044 383.37,159.378 384.5,160.5C 382.905,161.434 381.239,161.434 379.5,160.5C 376.777,155.444 372.777,151.777 367.5,149.5C 365.77,148.974 364.436,147.974 363.5,146.5C 360.879,142.772 361.879,141.772 366.5,143.5 Z"/></g>
<g><path style="opacity:1" fill="#6b1cd9" d="M 178.5,141.5 C 174.868,144.984 173.535,149.317 174.5,154.5C 173.527,152.052 173.194,149.385 173.5,146.5C 174.167,143.833 175.833,142.167 178.5,141.5 Z"/></g>
<g><path style="opacity:1" fill="#8743d7" d="M 367.5,149.5 C 372.777,151.777 376.777,155.444 379.5,160.5C 375.474,156.805 371.474,153.138 367.5,149.5 Z"/></g>
<g><path style="opacity:1" fill="#8a4ac6" d="M 173.5,146.5 C 173.194,149.385 173.527,152.052 174.5,154.5C 174.5,154.833 174.5,155.167 174.5,155.5C 175.11,156.391 175.443,157.391 175.5,158.5C 174.21,157.942 173.377,156.942 173,155.5C 172.195,152.304 172.362,149.304 173.5,146.5 Z"/></g>
<g><path style="opacity:1" fill="#7b33d1" d="M 191.5,144.5 C 195.595,149.756 195.261,154.922 190.5,160C 184.949,163.714 179.949,163.214 175.5,158.5C 175.443,157.391 175.11,156.391 174.5,155.5C 176.149,156.714 177.815,158.047 179.5,159.5C 182.106,160.652 184.773,160.818 187.5,160C 192.542,155.943 193.875,150.776 191.5,144.5 Z"/></g>
<g><path style="opacity:1" fill="#7123e3" d="M 277.5,140.5 C 277.66,142.153 278.326,143.486 279.5,144.5C 267.571,151.928 257.738,161.595 250,173.5C 247.454,178.592 244.954,183.592 242.5,188.5C 242.5,186.833 242.5,185.167 242.5,183.5C 241.5,183.5 240.5,183.5 239.5,183.5C 240.326,180.515 241.659,177.849 243.5,175.5C 250.138,163.025 259.138,152.525 270.5,144C 272.577,142.295 274.91,141.128 277.5,140.5 Z"/></g>
<g><path style="opacity:1" fill="#bf8ce0" d="M 231.5,161.5 C 235.634,160.515 239.968,160.182 244.5,160.5C 244.737,161.791 244.404,162.791 243.5,163.5C 239.971,161.577 235.971,160.911 231.5,161.5 Z"/></g>
<g><path style="opacity:1" fill="#8742d9" d="M 432.5,162.5 C 430.167,162.5 427.833,162.5 425.5,162.5C 416.5,162.5 407.5,162.5 398.5,162.5C 398.517,164.565 398.85,166.565 399.5,168.5C 397.694,166.911 396.361,164.911 395.5,162.5C 396.729,161.719 398.062,161.219 399.5,161C 410.67,160.841 421.67,161.341 432.5,162.5 Z"/></g>
<g><path style="opacity:1" fill="#6606f9" d="M 240.5,168.5 C 239.404,171.032 238.071,173.365 236.5,175.5C 233.637,178.061 232.304,181.394 232.5,185.5C 230.76,187.974 229.26,190.641 228,193.5C 225.398,192.704 223.232,191.371 221.5,189.5C 215.117,183.058 209.45,176.058 204.5,168.5C 204.489,166.983 203.823,165.816 202.5,165C 215.765,162.94 229.099,162.273 242.5,163C 241.167,163.333 239.833,163.667 238.5,164C 240.107,165.049 240.773,166.549 240.5,168.5 Z"/></g>
<g><path style="opacity:1" fill="#7a33cc" d="M 327.5,164.5 C 322.881,163.686 318.214,163.353 313.5,163.5C 318.341,160.748 323.008,161.081 327.5,164.5 Z"/></g>
<g><path style="opacity:1" fill="#6604fa" d="M 425.5,162.5 C 429.021,163.166 432.687,163.833 436.5,164.5C 434.995,165.842 434.328,167.508 434.5,169.5C 432.952,169.821 432.285,170.821 432.5,172.5C 431.069,172.119 430.236,171.119 430,169.5C 428.206,173.093 426.706,176.759 425.5,180.5C 424.557,183.109 422.89,185.109 420.5,186.5C 416.643,186.69 414.976,188.69 415.5,192.5C 414.833,193.5 414.167,194.5 413.5,195.5C 412.504,195.586 411.671,195.252 411,194.5C 408.055,185.834 405.222,177.167 402.5,168.5C 401.5,168.5 400.5,168.5 399.5,168.5C 398.85,166.565 398.517,164.565 398.5,162.5C 407.5,162.5 416.5,162.5 425.5,162.5 Z"/></g>
<g><path style="opacity:1" fill="#7227da" d="M 231.5,161.5 C 235.971,160.911 239.971,161.577 243.5,163.5C 242.737,165.368 241.737,167.035 240.5,168.5C 240.773,166.549 240.107,165.049 238.5,164C 239.833,163.667 241.167,163.333 242.5,163C 229.099,162.273 215.765,162.94 202.5,165C 203.823,165.816 204.489,166.983 204.5,168.5C 201.733,167.362 201.066,165.528 202.5,163C 212.121,161.714 221.788,161.214 231.5,161.5 Z"/></g>
<g><path style="opacity:1" fill="#6e1ee4" d="M 382.5,156.5 C 389.056,162.731 394.056,170.065 397.5,178.5C 396.5,178.5 395.5,178.5 394.5,178.5C 393.833,178.5 393.167,178.5 392.5,178.5C 388.669,172.184 384.335,166.184 379.5,160.5C 381.239,161.434 382.905,161.434 384.5,160.5C 383.37,159.378 382.703,158.044 382.5,156.5 Z"/></g>
<g><path style="opacity:1" fill="#7229cc" d="M 425.5,162.5 C 427.833,162.5 430.167,162.5 432.5,162.5C 434.5,162.5 436.5,162.5 438.5,162.5C 438.002,165.326 436.669,167.66 434.5,169.5C 434.328,167.508 434.995,165.842 436.5,164.5C 432.687,163.833 429.021,163.166 425.5,162.5 Z"/></g>
<g><path style="opacity:1" fill="#843fd8" d="M 328.5,164.5 C 330.587,165.585 331.92,167.251 332.5,169.5C 330.065,168.73 328.731,167.063 328.5,164.5 Z"/></g>
<g><path style="opacity:1" fill="#7e36d2" d="M 310.5,165.5 C 309.598,167.341 308.264,168.674 306.5,169.5C 306.833,167.167 308.167,165.833 310.5,165.5 Z"/></g>
<g><path style="opacity:1" fill="#7d39ce" d="M 434.5,169.5 C 434.068,170.71 433.401,171.71 432.5,172.5C 432.285,170.821 432.952,169.821 434.5,169.5 Z"/></g>
<g><path style="opacity:1" fill="#7529e2" d="M 432.5,172.5 C 430.628,175.582 428.295,178.249 425.5,180.5C 426.706,176.759 428.206,173.093 430,169.5C 430.236,171.119 431.069,172.119 432.5,172.5 Z"/></g>
<g><path style="opacity:1" fill="#6504f1" d="M 243.5,175.5 C 244.5,175.5 245.5,175.5 246.5,175.5C 243.639,184.641 242.639,184.641 243.5,175.5 Z"/></g>
<g><path style="opacity:1" fill="#7b32d4" d="M 306.5,169.5 C 306.613,172.049 305.946,174.382 304.5,176.5C 305.659,180.136 306.659,183.802 307.5,187.5C 302.633,181.76 302.3,175.76 306.5,169.5 Z"/></g>
<g><path style="opacity:1" fill="#6607f3" d="M 313.5,163.5 C 318.214,163.353 322.881,163.686 327.5,164.5C 327.833,164.5 328.167,164.5 328.5,164.5C 328.731,167.063 330.065,168.73 332.5,169.5C 336.302,174.908 336.469,180.574 333,186.5C 331.223,188.79 329.056,190.457 326.5,191.5C 325.167,208.153 324.5,225.153 324.5,242.5C 324.5,259.67 324.833,276.67 325.5,293.5C 325.5,296.5 325.5,299.5 325.5,302.5C 323.801,302.473 322.467,301.806 321.5,300.5C 321.5,295.5 321.5,290.5 321.5,285.5C 321.667,255.831 321.5,226.165 321,196.5C 320.781,195.062 320.281,193.729 319.5,192.5C 318.893,192.624 318.56,192.957 318.5,193.5C 317.671,200.321 317.171,207.321 317,214.5C 316.5,241.498 316.333,268.498 316.5,295.5C 316.702,297.989 316.202,300.323 315,302.5C 314.705,300.069 313.538,298.236 311.5,297C 312.826,279.552 313.493,261.885 313.5,244C 313.5,226.33 313.167,208.83 312.5,191.5C 311.415,189.413 309.749,188.08 307.5,187.5C 306.659,183.802 305.659,180.136 304.5,176.5C 305.946,174.382 306.613,172.049 306.5,169.5C 308.264,168.674 309.598,167.341 310.5,165.5C 310.973,164.094 311.973,163.427 313.5,163.5 Z M 323.5,175.5 C 324.509,181.127 322.175,182.793 316.5,180.5C 315.652,178.591 315.318,176.591 315.5,174.5C 316.449,173.848 317.615,173.514 319,173.5C 321.008,173.307 322.508,173.974 323.5,175.5 Z"/></g>
<g><path style="opacity:1" fill="#7730d7" d="M 236.5,175.5 C 235.686,179.116 234.352,182.449 232.5,185.5C 232.304,181.394 233.637,178.061 236.5,175.5 Z"/></g>
<g><path style="opacity:1" fill="#7d38d2" d="M 399.5,168.5 C 400.5,168.5 401.5,168.5 402.5,168.5C 405.222,177.167 408.055,185.834 411,194.5C 411.671,195.252 412.504,195.586 413.5,195.5C 412.86,197.332 411.86,197.665 410.5,196.5C 407.375,186.922 403.708,177.588 399.5,168.5 Z"/></g>
<g><path style="opacity:1" fill="#7c34e1" d="M 315.5,174.5 C 315.318,176.591 315.652,178.591 316.5,180.5C 322.175,182.793 324.509,181.127 323.5,175.5C 325.886,177.344 325.886,179.511 323.5,182C 320.518,182.498 317.518,182.665 314.5,182.5C 314.194,179.615 314.527,176.948 315.5,174.5 Z"/></g>
<g><path style="opacity:1" fill="#7732ce" d="M 271.5,183.5 C 274.64,182.359 277.973,182.192 281.5,183C 283.584,183.697 285.251,184.864 286.5,186.5C 281.705,184.608 276.705,183.608 271.5,183.5 Z"/></g>
<g><path style="opacity:1" fill="#6d24da" d="M 376.5,189.5 C 372.878,187.689 369.211,185.855 365.5,184C 362.854,183.503 360.187,183.336 357.5,183.5C 363.3,181.344 368.967,182.178 374.5,186C 375.823,186.816 376.489,187.983 376.5,189.5 Z"/></g>
<g><path style="opacity:1" fill="#722bc9" d="M 352.5,186.5 C 351.92,188.749 350.587,190.415 348.5,191.5C 349.08,189.251 350.413,187.585 352.5,186.5 Z"/></g>
<g><path style="opacity:1" fill="#7129d2" d="M 287.5,186.5 C 289.218,188.223 290.551,190.223 291.5,192.5C 288.675,191.522 287.342,189.522 287.5,186.5 Z"/></g>
<g><path style="opacity:1" fill="#762ecd" d="M 307.5,187.5 C 309.749,188.08 311.415,189.413 312.5,191.5C 310.251,190.92 308.585,189.587 307.5,187.5 Z"/></g>
<g><path style="opacity:1" fill="#833dd9" d="M 392.5,178.5 C 393.167,178.5 393.833,178.5 394.5,178.5C 395.865,184.283 397.698,189.95 400,195.5C 400.497,198.146 400.664,200.813 400.5,203.5C 400.5,204.5 400.5,205.5 400.5,206.5C 399.103,196.927 396.436,187.593 392.5,178.5 Z"/></g>
<g><path style="opacity:1" fill="#762adb" d="M 420.5,186.5 C 419.557,189.109 417.89,191.109 415.5,192.5C 414.976,188.69 416.643,186.69 420.5,186.5 Z"/></g>
<g><path style="opacity:1" fill="#6502fb" d="M 357.5,183.5 C 360.187,183.336 362.854,183.503 365.5,184C 369.211,185.855 372.878,187.689 376.5,189.5C 376.5,194.833 376.5,200.167 376.5,205.5C 374.179,205.229 372.179,205.896 370.5,207.5C 368.84,214.018 368.007,220.685 368,227.5C 367.773,230.06 366.44,231.726 364,232.5C 363.536,231.906 363.369,231.239 363.5,230.5C 364.167,230.5 364.5,230.167 364.5,229.5C 365.488,224.36 365.821,219.026 365.5,213.5C 363.856,213.286 362.356,213.62 361,214.5C 360.828,218.871 360.328,223.204 359.5,227.5C 359.131,222.1 358.131,217.1 356.5,212.5C 353.526,210.131 351.193,207.131 349.5,203.5C 348.509,199.555 348.176,195.555 348.5,191.5C 350.587,190.415 351.92,188.749 352.5,186.5C 353.659,184.75 355.326,183.75 357.5,183.5 Z M 360.5,193.5 C 367.489,193.337 369.155,196.17 365.5,202C 358.416,202.475 356.749,199.642 360.5,193.5 Z"/></g>
<g><path style="opacity:1" fill="#7429de" d="M 232.5,185.5 C 231.442,189.844 230.276,194.177 229,198.5C 225.912,195.919 223.412,192.919 221.5,189.5C 223.232,191.371 225.398,192.704 228,193.5C 229.26,190.641 230.76,187.974 232.5,185.5 Z"/></g>
<g><path style="opacity:1" fill="#762cd4" d="M 358.5,192.5 C 361.881,192.46 365.214,192.793 368.5,193.5C 369.862,202.99 366.362,205.657 358,201.5C 357.366,198.445 357.532,195.445 358.5,192.5 Z M 360.5,193.5 C 356.749,199.642 358.416,202.475 365.5,202C 369.155,196.17 367.489,193.337 360.5,193.5 Z"/></g>
<g><path style="opacity:1" fill="#8543c8" d="M 175.5,197.5 C 172.5,197.5 169.5,197.5 166.5,197.5C 169.5,194.833 172.5,194.833 175.5,197.5 Z"/></g>
<g><path style="opacity:1" fill="#8644cc" d="M 472.5,197.5 C 469.5,197.5 466.5,197.5 463.5,197.5C 466.5,194.833 469.5,194.833 472.5,197.5 Z"/></g>
<g><path style="opacity:1" fill="#7a39c8" d="M 166.5,197.5 C 165.415,199.587 163.749,200.92 161.5,201.5C 162.585,199.413 164.251,198.08 166.5,197.5 Z"/></g>
<g><path style="opacity:1" fill="#6504f7" d="M 166.5,197.5 C 169.5,197.5 172.5,197.5 175.5,197.5C 177.404,197.738 178.738,198.738 179.5,200.5C 180.36,204.434 180.693,208.434 180.5,212.5C 180.167,213.5 179.5,214.167 178.5,214.5C 175.865,215.142 173.198,215.809 170.5,216.5C 167.891,216.559 165.557,215.892 163.5,214.5C 162.197,210.618 161.53,206.618 161.5,202.5C 161.5,202.167 161.5,201.833 161.5,201.5C 163.749,200.92 165.415,199.587 166.5,197.5 Z"/></g>
<g><path style="opacity:1" fill="#aa66e2" d="M 321.5,285.5 C 320.668,260.003 320.168,234.337 320,208.5C 319.79,206.942 319.29,205.609 318.5,204.5C 318.5,200.833 318.5,197.167 318.5,193.5C 318.56,192.957 318.893,192.624 319.5,192.5C 320.281,193.729 320.781,195.062 321,196.5C 321.5,226.165 321.667,255.831 321.5,285.5 Z"/></g>
<g><path style="opacity:1" fill="#7530d6" d="M 348.5,191.5 C 348.176,195.555 348.509,199.555 349.5,203.5C 351.193,207.131 353.526,210.131 356.5,212.5C 347.128,208.052 344.462,201.052 348.5,191.5 Z"/></g>
<g><path style="opacity:1" fill="#7c38d1" d="M 269.5,184.5 C 261.453,191.966 260.453,200.299 266.5,209.5C 260.106,203.949 258.94,197.283 263,189.5C 264.777,187.21 266.944,185.543 269.5,184.5 Z"/></g>
<g><path style="opacity:1" fill="#6709f7" d="M 463.5,197.5 C 466.5,197.5 469.5,197.5 472.5,197.5C 474.027,197.427 475.027,198.094 475.5,199.5C 476.615,201.307 477.281,203.307 477.5,205.5C 477.05,209.048 476.05,212.382 474.5,215.5C 470.992,218.689 467.325,219.022 463.5,216.5C 459.117,212.88 457.451,208.214 458.5,202.5C 459.167,199.833 460.833,198.167 463.5,197.5 Z"/></g>
<g><path style="opacity:1" fill="#6e1de8" d="M 280.5,194.5 C 282.164,195.949 282.998,197.949 283,200.5C 283.667,201.833 284.333,201.833 285,200.5C 285.333,202.167 285.667,203.833 286,205.5C 287.368,204.007 287.535,202.507 286.5,201C 287.325,199.312 288.325,199.145 289.5,200.5C 291.229,198.149 291.896,195.482 291.5,192.5C 294.496,201.206 291.829,207.872 283.5,212.5C 281.558,217.056 280.892,222.056 281.5,227.5C 280.509,221.021 280.176,214.354 280.5,207.5C 283.718,207.349 284.051,206.516 281.5,205C 284.028,204.331 284.028,203.498 281.5,202.5C 275.614,205.975 271.947,204.308 270.5,197.5C 270.148,195.076 271.148,193.576 273.5,193C 275.5,192.333 277.5,192.333 279.5,193C 280.056,193.383 280.389,193.883 280.5,194.5 Z M 280.5,194.5 C 282.185,201.99 279.685,203.99 273,200.5C 272.056,194.281 274.556,192.281 280.5,194.5 Z"/></g>
<g><path style="opacity:1" fill="#6502fa" d="M 271.5,183.5 C 276.705,183.608 281.705,184.608 286.5,186.5C 286.833,186.5 287.167,186.5 287.5,186.5C 287.342,189.522 288.675,191.522 291.5,192.5C 291.896,195.482 291.229,198.149 289.5,200.5C 288.325,199.145 287.325,199.312 286.5,201C 287.535,202.507 287.368,204.007 286,205.5C 285.667,203.833 285.333,202.167 285,200.5C 284.333,201.833 283.667,201.833 283,200.5C 282.998,197.949 282.164,195.949 280.5,194.5C 280.389,193.883 280.056,193.383 279.5,193C 277.5,192.333 275.5,192.333 273.5,193C 271.148,193.576 270.148,195.076 270.5,197.5C 271.947,204.308 275.614,205.975 281.5,202.5C 284.028,203.498 284.028,204.331 281.5,205C 284.051,206.516 283.718,207.349 280.5,207.5C 280.176,214.354 280.509,221.021 281.5,227.5C 281.833,227.5 282.167,227.5 282.5,227.5C 282.719,228.675 282.386,229.675 281.5,230.5C 280.583,229.873 279.583,229.539 278.5,229.5C 278.819,224.637 278.486,219.97 277.5,215.5C 276.075,213.969 275.409,214.302 275.5,216.5C 275.5,221.167 275.5,225.833 275.5,230.5C 276.075,232.411 277.075,234.078 278.5,235.5C 278.158,236.338 277.492,236.672 276.5,236.5C 274.404,234.567 272.904,232.233 272,229.5C 272.129,223.084 271.295,217.084 269.5,211.5C 267.973,211.573 266.973,210.906 266.5,209.5C 260.453,200.299 261.453,191.966 269.5,184.5C 269.842,183.662 270.508,183.328 271.5,183.5 Z M 280.5,194.5 C 274.556,192.281 272.056,194.281 273,200.5C 279.685,203.99 282.185,201.99 280.5,194.5 Z"/></g>
<g><path style="opacity:1" fill="#6f1fe5" d="M 239.5,183.5 C 240.5,183.5 241.5,183.5 242.5,183.5C 242.5,185.167 242.5,186.833 242.5,188.5C 241.5,193.832 240.5,199.165 239.5,204.5C 238.506,213.986 238.173,223.652 238.5,233.5C 237.5,233.5 236.5,233.5 235.5,233.5C 232.033,216.429 233.367,199.762 239.5,183.5 Z"/></g>
<g><path style="opacity:1" fill="#7937d0" d="M 458.5,202.5 C 457.451,208.214 459.117,212.88 463.5,216.5C 460.909,215.746 459.076,214.079 458,211.5C 457.195,208.304 457.362,205.304 458.5,202.5 Z"/></g>
<g><path style="opacity:1" fill="#7732d3" d="M 179.5,200.5 C 183.115,204.199 183.448,208.199 180.5,212.5C 180.693,208.434 180.36,204.434 179.5,200.5 Z"/></g>
<g><path style="opacity:1" fill="#7833cf" d="M 475.5,199.5 C 480.893,205.058 480.56,210.391 474.5,215.5C 476.05,212.382 477.05,209.048 477.5,205.5C 477.281,203.307 476.615,201.307 475.5,199.5 Z"/></g>
<g><path style="opacity:1" fill="#7c38d0" d="M 161.5,202.5 C 161.53,206.618 162.197,210.618 163.5,214.5C 159.618,210.905 158.952,206.905 161.5,202.5 Z"/></g>
<g><path style="opacity:1" fill="#6a22c0" d="M 400.5,203.5 C 401.165,206.649 401.498,209.982 401.5,213.5C 401.632,219.077 400.965,224.41 399.5,229.5C 400.143,221.85 400.477,214.183 400.5,206.5C 400.5,205.5 400.5,204.5 400.5,203.5 Z"/></g>
<g><path style="opacity:1" fill="#803ecc" d="M 229.5,228.5 C 228.024,223.934 227.024,219.267 226.5,214.5C 224.833,215.167 223.167,215.833 221.5,216.5C 222.995,213.664 225.161,212.664 228,213.5C 228.411,218.519 228.911,223.519 229.5,228.5 Z"/></g>
<g><path style="opacity:1" fill="#6211d0" d="M 326.5,191.5 C 325.53,207.452 325.197,223.452 325.5,239.5C 325.5,257.5 325.5,275.5 325.5,293.5C 324.833,276.67 324.5,259.67 324.5,242.5C 324.5,225.153 325.167,208.153 326.5,191.5 Z"/></g>
<g><path style="opacity:1" fill="#7933d6" d="M 163.5,214.5 C 165.557,215.892 167.891,216.559 170.5,216.5C 173.198,215.809 175.865,215.142 178.5,214.5C 174.972,218.758 170.639,219.591 165.5,217C 164.619,216.292 163.953,215.458 163.5,214.5 Z"/></g>
<g><path style="opacity:1" fill="#6501fb" d="M 226.5,214.5 C 226.191,222.325 227.024,229.992 229,237.5C 229.417,238.756 230.25,239.423 231.5,239.5C 231.5,239.833 231.5,240.167 231.5,240.5C 231.833,243.167 232.167,245.833 232.5,248.5C 229.833,248.167 227.167,247.833 224.5,247.5C 221.495,245.723 218.162,244.723 214.5,244.5C 213.517,243.15 212.184,242.15 210.5,241.5C 206.548,240.506 202.548,239.84 198.5,239.5C 198.167,239.5 197.833,239.5 197.5,239.5C 196.135,237.249 196.469,235.249 198.5,233.5C 200.749,232.92 202.415,231.587 203.5,229.5C 208.218,229.141 211.551,226.808 213.5,222.5C 215.017,222.489 216.184,221.823 217,220.5C 217.667,221.167 218.333,221.833 219,222.5C 219.236,220.189 220.069,218.189 221.5,216.5C 223.167,215.833 224.833,215.167 226.5,214.5 Z"/></g>
<g><path style="opacity:1" fill="#6f20e7" d="M 394.5,178.5 C 395.5,178.5 396.5,178.5 397.5,178.5C 401.883,186.159 404.383,194.493 405,203.5C 405.667,211.5 405.667,219.5 405,227.5C 404.809,229.708 404.309,231.708 403.5,233.5C 401.992,235.985 400.659,238.652 399.5,241.5C 399.288,238.348 399.288,235.015 399.5,231.5C 399.5,230.833 399.5,230.167 399.5,229.5C 400.965,224.41 401.632,219.077 401.5,213.5C 401.498,209.982 401.165,206.649 400.5,203.5C 400.664,200.813 400.497,198.146 400,195.5C 397.698,189.95 395.865,184.283 394.5,178.5 Z"/></g>
<g><path style="opacity:1" fill="#8946cf" d="M 421.5,217.5 C 423.389,218.604 425.055,219.937 426.5,221.5C 423.796,221.33 422.129,219.997 421.5,217.5 Z"/></g>
<g><path style="opacity:1" fill="#7022e2" d="M 221.5,216.5 C 220.069,218.189 219.236,220.189 219,222.5C 218.333,221.833 217.667,221.167 217,220.5C 216.184,221.823 215.017,222.489 213.5,222.5C 215.8,220.016 218.467,218.016 221.5,216.5 Z"/></g>
<g><path style="opacity:1" fill="#c68bef" d="M 277.5,215.5 C 277.5,217.5 277.5,219.5 277.5,221.5C 276.833,219.833 276.167,218.167 275.5,216.5C 275.409,214.302 276.075,213.969 277.5,215.5 Z"/></g>
<g><path style="opacity:1" fill="#6603f9" d="M 417.5,215.5 C 419.062,215.733 420.395,216.4 421.5,217.5C 422.129,219.997 423.796,221.33 426.5,221.5C 427.5,222.167 428.5,222.833 429.5,223.5C 429.488,226.142 430.821,227.475 433.5,227.5C 435.027,227.427 436.027,228.094 436.5,229.5C 437.035,231.446 438.368,232.446 440.5,232.5C 441.5,233.167 442.5,233.833 443.5,234.5C 444.038,236.117 444.371,237.784 444.5,239.5C 443.833,239.5 443.167,239.5 442.5,239.5C 439.772,239.171 437.438,239.837 435.5,241.5C 426.728,243.424 418.062,245.757 409.5,248.5C 408.833,248.167 408.167,247.833 407.5,247.5C 408.407,244.579 408.74,241.579 408.5,238.5C 410.388,236.012 411.055,233.012 410.5,229.5C 412.442,224.944 413.108,219.944 412.5,214.5C 414.216,214.629 415.883,214.962 417.5,215.5 Z"/></g>
<g><path style="opacity:1" fill="#6116b8" d="M 283.5,212.5 C 282.555,217.405 282.221,222.405 282.5,227.5C 282.167,227.5 281.833,227.5 281.5,227.5C 280.892,222.056 281.558,217.056 283.5,212.5 Z"/></g>
<g><path style="opacity:1" fill="#c27bff" d="M 362.5,215.5 C 362.56,214.957 362.893,214.624 363.5,214.5C 364.494,219.456 364.827,224.456 364.5,229.5C 364.5,230.167 364.167,230.5 363.5,230.5C 363.821,225.305 363.487,220.305 362.5,215.5 Z"/></g>
<g><path style="opacity:1" fill="#7129d3" d="M 417.5,215.5 C 415.883,214.962 414.216,214.629 412.5,214.5C 413.108,219.944 412.442,224.944 410.5,229.5C 410.907,223.839 411.24,218.172 411.5,212.5C 414.313,212.025 416.313,213.025 417.5,215.5 Z"/></g>
<g><path style="opacity:1" fill="#823ed5" d="M 269.5,211.5 C 271.295,217.084 272.129,223.084 272,229.5C 272.904,232.233 274.404,234.567 276.5,236.5C 276.5,236.833 276.5,237.167 276.5,237.5C 274.203,235.706 272.037,233.706 270,231.5C 269.5,224.842 269.334,218.175 269.5,211.5 Z"/></g>
<g><path style="opacity:1" fill="#6a19d1" d="M 277.5,215.5 C 278.486,219.97 278.819,224.637 278.5,229.5C 277.711,229.217 277.044,228.717 276.5,228C 277.423,225.959 277.756,223.792 277.5,221.5C 277.5,219.5 277.5,217.5 277.5,215.5 Z"/></g>
<g><path style="opacity:1" fill="#7125d0" d="M 429.5,223.5 C 431.167,224.5 432.5,225.833 433.5,227.5C 430.821,227.475 429.488,226.142 429.5,223.5 Z"/></g>
<g><path style="opacity:1" fill="#6b1ede" d="M 213.5,222.5 C 211.551,226.808 208.218,229.141 203.5,229.5C 206.475,226.677 209.808,224.344 213.5,222.5 Z"/></g>
<g><path style="opacity:1" fill="#8340d7" d="M 436.5,229.5 C 438.23,230.026 439.564,231.026 440.5,232.5C 438.368,232.446 437.035,231.446 436.5,229.5 Z"/></g>
<g><path style="opacity:1" fill="#6c20da" d="M 226.5,214.5 C 227.024,219.267 228.024,223.934 229.5,228.5C 230.422,232.112 231.089,235.779 231.5,239.5C 230.25,239.423 229.417,238.756 229,237.5C 227.024,229.992 226.191,222.325 226.5,214.5 Z"/></g>
<g><path style="opacity:1" fill="#7e38d4" d="M 275.5,230.5 C 280.23,234.227 284.23,238.56 287.5,243.5C 284.5,240.833 281.5,238.167 278.5,235.5C 277.075,234.078 276.075,232.411 275.5,230.5 Z"/></g>
<g><path style="opacity:1" fill="#7022df" d="M 356.5,212.5 C 358.131,217.1 359.131,222.1 359.5,227.5C 360.328,223.204 360.828,218.871 361,214.5C 362.356,213.62 363.856,213.286 365.5,213.5C 365.821,219.026 365.488,224.36 364.5,229.5C 364.827,224.456 364.494,219.456 363.5,214.5C 362.893,214.624 362.56,214.957 362.5,215.5C 362.666,219.846 362.499,224.179 362,228.5C 357.269,233.062 352.769,237.729 348.5,242.5C 348.5,241.5 348.5,240.5 348.5,239.5C 346.053,239.615 344.053,240.615 342.5,242.5C 342.5,242.167 342.5,241.833 342.5,241.5C 346.797,236.702 351.297,232.035 356,227.5C 356.499,222.511 356.666,217.511 356.5,212.5 Z"/></g>
<g><path style="opacity:1" fill="#742cd2" d="M 203.5,229.5 C 202.415,231.587 200.749,232.92 198.5,233.5C 199.585,231.413 201.251,230.08 203.5,229.5 Z"/></g>
<g><path style="opacity:1" fill="#7f36e0" d="M 239.5,204.5 C 238.582,217.122 239.915,229.456 243.5,241.5C 242.85,241.196 242.183,240.863 241.5,240.5C 240.851,238.376 240.017,236.376 239,234.5C 238.535,238.611 239.035,242.611 240.5,246.5C 238.037,242.557 236.37,238.224 235.5,233.5C 236.5,233.5 237.5,233.5 238.5,233.5C 238.173,223.652 238.506,213.986 239.5,204.5 Z"/></g>
<g><path style="opacity:1" fill="#7327de" d="M 376.5,189.5 C 381.374,198.991 379.207,206.658 370,212.5C 369.879,219.246 369.212,225.913 368,232.5C 364.33,237.336 360.164,241.669 355.5,245.5C 355.167,245.5 354.833,245.5 354.5,245.5C 354.196,243.204 353.196,242.871 351.5,244.5C 351.5,243.833 351.5,243.167 351.5,242.5C 355.167,238.167 359.167,234.167 363.5,230.5C 363.369,231.239 363.536,231.906 364,232.5C 366.44,231.726 367.773,230.06 368,227.5C 368.007,220.685 368.84,214.018 370.5,207.5C 372.179,205.896 374.179,205.229 376.5,205.5C 376.5,200.167 376.5,194.833 376.5,189.5 Z"/></g>
<g><path style="opacity:1" fill="#7229d5" d="M 410.5,229.5 C 411.055,233.012 410.388,236.012 408.5,238.5C 408.676,235.273 409.343,232.273 410.5,229.5 Z"/></g>
<g><path style="opacity:1" fill="#8243c7" d="M 198.5,233.5 C 196.469,235.249 196.135,237.249 197.5,239.5C 195.91,239.372 194.577,238.705 193.5,237.5C 194.605,235.389 196.271,234.055 198.5,233.5 Z"/></g>
<g><path style="opacity:1" fill="#8e50c8" d="M 443.5,234.5 C 446.726,235.877 447.059,237.543 444.5,239.5C 444.371,237.784 444.038,236.117 443.5,234.5 Z"/></g>
<g><path style="opacity:1" fill="#742bd5" d="M 198.5,239.5 C 202.548,239.84 206.548,240.506 210.5,241.5C 212.184,242.15 213.517,243.15 214.5,244.5C 208.834,243.61 203.5,241.943 198.5,239.5 Z"/></g>
<g><path style="opacity:1" fill="#8b4ad6" d="M 442.5,239.5 C 440.485,240.924 438.152,241.59 435.5,241.5C 437.438,239.837 439.772,239.171 442.5,239.5 Z"/></g>
<g><path style="opacity:1" fill="#6509f0" d="M 243.5,241.5 C 244.363,243.421 245.029,245.421 245.5,247.5C 245.92,249.674 245.92,251.674 245.5,253.5C 243.699,251.125 242.032,248.792 240.5,246.5C 239.035,242.611 238.535,238.611 239,234.5C 240.017,236.376 240.851,238.376 241.5,240.5C 242.183,240.863 242.85,241.196 243.5,241.5 Z"/></g>
<g><path style="opacity:1" fill="#7a36d0" d="M 214.5,244.5 C 218.162,244.723 221.495,245.723 224.5,247.5C 220.838,247.277 217.505,246.277 214.5,244.5 Z"/></g>
<g><path style="opacity:1" fill="#6921cc" d="M 231.5,240.5 C 232.738,242.214 233.405,244.214 233.5,246.5C 233.5,247.5 233.5,248.5 233.5,249.5C 232.5,249.5 231.5,249.5 230.5,249.5C 228.214,249.405 226.214,248.738 224.5,247.5C 227.167,247.833 229.833,248.167 232.5,248.5C 232.167,245.833 231.833,243.167 231.5,240.5 Z"/></g>
<g><path style="opacity:1" fill="#c487fc" d="M 351.5,242.5 C 351.5,243.167 351.5,243.833 351.5,244.5C 350.504,257.656 350.171,270.99 350.5,284.5C 349.339,271.006 349.173,257.34 350,243.5C 350.383,242.944 350.883,242.611 351.5,242.5 Z"/></g>
<g><path style="opacity:1" fill="#9b66c0" d="M 233.5,246.5 C 234.434,247.568 234.768,248.901 234.5,250.5C 232.901,250.768 231.568,250.434 230.5,249.5C 231.5,249.5 232.5,249.5 233.5,249.5C 233.5,248.5 233.5,247.5 233.5,246.5 Z"/></g>
<g><path style="opacity:1" fill="#7a35d0" d="M 408.5,238.5 C 408.74,241.579 408.407,244.579 407.5,247.5C 408.167,247.833 408.833,248.167 409.5,248.5C 418.062,245.757 426.728,243.424 435.5,241.5C 426.82,244.924 417.82,247.591 408.5,249.5C 406.952,249.179 406.285,248.179 406.5,246.5C 406.565,243.572 407.232,240.905 408.5,238.5 Z"/></g>
<g><path style="opacity:1" fill="#ab75d0" d="M 406.5,246.5 C 406.285,248.179 406.952,249.179 408.5,249.5C 407.791,250.404 406.791,250.737 405.5,250.5C 405.232,248.901 405.566,247.568 406.5,246.5 Z"/></g>
<g><path style="opacity:1" fill="#7934cf" d="M 187.5,254.5 C 183.641,252.412 179.641,252.079 175.5,253.5C 175.611,252.883 175.944,252.383 176.5,252C 179.167,251.333 181.833,251.333 184.5,252C 185.942,252.377 186.942,253.21 187.5,254.5 Z"/></g>
<g><path style="opacity:1" fill="#8d42e1" d="M 342.5,241.5 C 342.5,241.833 342.5,242.167 342.5,242.5C 342.667,262.169 342.5,281.836 342,301.5C 339.499,303.056 337.999,302.389 337.5,299.5C 338.458,299.953 339.292,300.619 340,301.5C 340.333,300.833 340.667,300.167 341,299.5C 341.168,279.996 341.668,260.662 342.5,241.5 Z"/></g>
<g><path style="opacity:1" fill="#772fd1" d="M 318.5,193.5 C 318.5,197.167 318.5,200.833 318.5,204.5C 318.633,234.84 318.3,265.174 317.5,295.5C 317.167,295.5 316.833,295.5 316.5,295.5C 316.333,268.498 316.5,241.498 317,214.5C 317.171,207.321 317.671,200.321 318.5,193.5 Z"/></g>
<g><path style="opacity:1" fill="#8643d4" d="M 454.5,252.5 C 457.627,251.185 460.627,251.518 463.5,253.5C 460.518,253.037 457.518,252.704 454.5,252.5 Z"/></g>
<g><path style="opacity:1" fill="#7428da" d="M 240.5,246.5 C 242.032,248.792 243.699,251.125 245.5,253.5C 245.92,251.674 245.92,249.674 245.5,247.5C 247.341,249.849 248.674,252.515 249.5,255.5C 247.146,254.506 246.146,255.506 246.5,258.5C 243.46,255.086 241.46,251.086 240.5,246.5 Z"/></g>
<g><path style="opacity:1" fill="#6604f8" d="M 187.5,254.5 C 189.262,255.262 190.262,256.596 190.5,258.5C 190.192,262.573 189.525,266.573 188.5,270.5C 185.77,270.473 183.27,271.14 181,272.5C 177.327,272.009 174.16,270.676 171.5,268.5C 171.5,268.167 171.5,267.833 171.5,267.5C 171.5,264.167 171.5,260.833 171.5,257.5C 171.5,256.833 171.833,256.5 172.5,256.5C 173.833,255.833 174.833,254.833 175.5,253.5C 179.641,252.079 183.641,252.412 187.5,254.5 Z"/></g>
<g><path style="opacity:1" fill="#6603fa" d="M 452.5,271.5 C 448.998,267.927 447.664,263.594 448.5,258.5C 448.427,256.973 449.094,255.973 450.5,255.5C 464.77,251.437 469.436,256.437 464.5,270.5C 462.334,270.579 460.334,271.246 458.5,272.5C 456.547,271.844 454.547,271.511 452.5,271.5 Z"/></g>
<g><path style="opacity:1" fill="#7a3bcb" d="M 175.5,253.5 C 174.833,254.833 173.833,255.833 172.5,256.5C 172.5,254.5 173.5,253.5 175.5,253.5 Z"/></g>
<g><path style="opacity:1" fill="#641dbb" d="M 347.5,243.5 C 346.511,266.092 346.178,288.758 346.5,311.5C 344.067,311.727 342.401,310.727 341.5,308.5C 342.583,308.539 343.583,308.873 344.5,309.5C 344.839,287.151 345.839,265.151 347.5,243.5 Z"/></g>
<g><path style="opacity:1" fill="#6823bd" d="M 354.5,245.5 C 354.833,245.5 355.167,245.5 355.5,245.5C 354.264,258.777 354.264,272.111 355.5,285.5C 354.883,285.389 354.383,285.056 354,284.5C 353.173,271.327 353.34,258.327 354.5,245.5 Z"/></g>
<g><path style="opacity:1" fill="#6305ee" d="M 249.5,255.5 C 250.498,257.45 250.332,259.45 249,261.5C 248.583,260.244 247.75,259.577 246.5,259.5C 246.5,259.167 246.5,258.833 246.5,258.5C 246.146,255.506 247.146,254.506 249.5,255.5 Z"/></g>
<g><path style="opacity:1" fill="#6e25d7" d="M 454.5,252.5 C 457.518,252.704 460.518,253.037 463.5,253.5C 471.614,260.358 471.281,266.858 462.5,273C 459.5,273.667 456.5,273.667 453.5,273C 452.944,272.617 452.611,272.117 452.5,271.5C 454.547,271.511 456.547,271.844 458.5,272.5C 460.334,271.246 462.334,270.579 464.5,270.5C 469.436,256.437 464.77,251.437 450.5,255.5C 451.262,253.738 452.596,252.738 454.5,252.5 Z"/></g>
<g><path style="opacity:1" fill="#7a3ac5" d="M 171.5,257.5 C 171.5,260.833 171.5,264.167 171.5,267.5C 169.036,264.134 169.036,260.8 171.5,257.5 Z"/></g>
<g><path style="opacity:1" fill="#6309e4" d="M 278.5,235.5 C 281.5,238.167 284.5,240.833 287.5,243.5C 287.667,259.17 287.5,274.837 287,290.5C 284.952,291.423 283.119,290.923 281.5,289C 282.416,288.722 283.082,288.222 283.5,287.5C 284.495,275.345 284.829,263.011 284.5,250.5C 284.66,248.801 284.494,247.134 284,245.5C 281.295,242.964 278.795,240.297 276.5,237.5C 276.5,237.167 276.5,236.833 276.5,236.5C 277.492,236.672 278.158,236.338 278.5,235.5 Z"/></g>
<g><path style="opacity:1" fill="#823ed0" d="M 448.5,258.5 C 447.664,263.594 448.998,267.927 452.5,271.5C 450.248,271.084 448.748,269.751 448,267.5C 445.963,264.226 446.13,261.226 448.5,258.5 Z"/></g>
<g><path style="opacity:1" fill="#7229d9" d="M 190.5,258.5 C 192.233,262.91 191.566,266.91 188.5,270.5C 189.525,266.573 190.192,262.573 190.5,258.5 Z"/></g>
<g><path style="opacity:1" fill="#7126dc" d="M 249.5,255.5 C 254.722,263.064 260.722,270.064 267.5,276.5C 265.774,276.185 264.107,276.019 262.5,276C 265.033,279.031 267.7,281.864 270.5,284.5C 265.281,281.954 260.948,278.287 257.5,273.5C 254.8,271.766 252.8,269.432 251.5,266.5C 249.478,264.469 247.811,262.135 246.5,259.5C 247.75,259.577 248.583,260.244 249,261.5C 250.332,259.45 250.498,257.45 249.5,255.5 Z"/></g>
<g><path style="opacity:1" fill="#6404f5" d="M 251.5,266.5 C 250.468,258.875 251.801,258.708 255.5,266C 255.167,266.5 254.833,267 254.5,267.5C 253.583,266.873 252.583,266.539 251.5,266.5 Z"/></g>
<g><path style="opacity:1" fill="#6403f9" d="M 257.5,273.5 C 256.642,267.161 257.976,266.995 261.5,273C 261.167,273.5 260.833,274 260.5,274.5C 259.583,273.873 258.583,273.539 257.5,273.5 Z"/></g>
<g><path style="opacity:1" fill="#bb7bf7" d="M 284.5,250.5 C 284.829,263.011 284.495,275.345 283.5,287.5C 282.833,287.5 282.5,287.167 282.5,286.5C 283.167,274.5 283.833,262.5 284.5,250.5 Z"/></g>
<g><path style="opacity:1" fill="#7d37d2" d="M 171.5,268.5 C 174.16,270.676 177.327,272.009 181,272.5C 183.27,271.14 185.77,270.473 188.5,270.5C 184.334,273.936 179.667,274.436 174.5,272C 173.29,270.961 172.29,269.794 171.5,268.5 Z"/></g>
<g><path style="opacity:1" fill="#8540d6" d="M 291.5,243.5 C 293.325,264.476 294.158,285.81 294,307.5C 295.356,308.38 296.856,308.714 298.5,308.5C 296.897,309.596 295.397,310.93 294,312.5C 293.667,312.167 293.333,311.833 293,311.5C 291.629,288.859 291.129,266.192 291.5,243.5 Z"/></g>
<g><path style="opacity:1" fill="#6810ea" d="M 282.5,227.5 C 287.465,231.963 292.298,236.63 297,241.5C 297.5,251.494 297.666,261.494 297.5,271.5C 296.506,281.987 296.172,292.654 296.5,303.5C 298.179,303.715 299.179,303.048 299.5,301.5C 301.239,298.757 303.573,296.757 306.5,295.5C 310.167,293.833 311.167,294.833 309.5,298.5C 305.859,301.805 302.192,305.138 298.5,308.5C 296.856,308.714 295.356,308.38 294,307.5C 294.158,285.81 293.325,264.476 291.5,243.5C 286.46,239.461 282.127,234.794 278.5,229.5C 279.583,229.539 280.583,229.873 281.5,230.5C 282.386,229.675 282.719,228.675 282.5,227.5 Z"/></g>
<g><path style="opacity:1" fill="#6f20e1" d="M 399.5,231.5 C 399.288,235.015 399.288,238.348 399.5,241.5C 400.659,238.652 401.992,235.985 403.5,233.5C 399.377,252.126 390.044,267.626 375.5,280C 370.14,284.012 364.474,287.512 358.5,290.5C 358.904,289.244 359.571,288.077 360.5,287C 360.164,285.97 359.497,285.47 358.5,285.5C 364.099,281.354 369.766,277.188 375.5,273C 387.282,261.259 395.282,247.426 399.5,231.5 Z"/></g>
<g><path style="opacity:1" fill="#6303f7" d="M 396.5,243.5 C 397.586,243.62 398.253,244.287 398.5,245.5C 397.53,247.483 396.53,249.483 395.5,251.5C 395.167,251 394.833,250.5 394.5,250C 396.013,248.121 396.679,245.954 396.5,243.5 Z"/></g>
<g><path style="opacity:1" fill="#6a15ec" d="M 267.5,276.5 C 269.754,277.415 271.754,278.748 273.5,280.5C 273.539,281.583 273.873,282.583 274.5,283.5C 276.872,284.347 278.872,285.681 280.5,287.5C 279.311,288.429 277.978,288.762 276.5,288.5C 274.147,287.66 272.147,286.326 270.5,284.5C 267.7,281.864 265.033,279.031 262.5,276C 264.107,276.019 265.774,276.185 267.5,276.5 Z"/></g>
<g><path style="opacity:1" fill="#6e24cf" d="M 287.5,243.5 C 288.662,259.661 288.828,275.995 288,292.5C 286.951,293.517 285.784,293.684 284.5,293C 281.609,291.726 278.942,290.226 276.5,288.5C 277.978,288.762 279.311,288.429 280.5,287.5C 278.872,285.681 276.872,284.347 274.5,283.5C 273.873,282.583 273.539,281.583 273.5,280.5C 276.5,282.5 279.5,284.5 282.5,286.5C 282.5,287.167 282.833,287.5 283.5,287.5C 283.082,288.222 282.416,288.722 281.5,289C 283.119,290.923 284.952,291.423 287,290.5C 287.5,274.837 287.667,259.17 287.5,243.5 Z"/></g>
<g><path style="opacity:1" fill="#630ae5" d="M 354.5,245.5 C 353.34,258.327 353.173,271.327 354,284.5C 354.383,285.056 354.883,285.389 355.5,285.5C 356.202,286.116 357.202,286.116 358.5,285.5C 359.497,285.47 360.164,285.97 360.5,287C 359.571,288.077 358.904,289.244 358.5,290.5C 357.609,291.11 356.609,291.443 355.5,291.5C 354.167,291.5 352.833,291.5 351.5,291.5C 351.737,290.209 351.404,289.209 350.5,288.5C 350.5,287.167 350.5,285.833 350.5,284.5C 350.171,270.99 350.504,257.656 351.5,244.5C 353.196,242.871 354.196,243.204 354.5,245.5 Z"/></g>
<g><path style="opacity:1" fill="#7d42bb" d="M 350.5,288.5 C 351.404,289.209 351.737,290.209 351.5,291.5C 352.833,291.5 354.167,291.5 355.5,291.5C 351.652,294.867 349.986,293.867 350.5,288.5 Z"/></g>
<g><path style="opacity:1" fill="#6508ef" d="M 348.5,242.5 C 348.5,243.167 348.167,243.5 347.5,243.5C 345.839,265.151 344.839,287.151 344.5,309.5C 343.583,308.873 342.583,308.539 341.5,308.5C 338.064,303.214 333.397,299.714 327.5,298C 326.402,297.23 326.402,296.397 327.5,295.5C 327.709,294.078 328.209,292.745 329,291.5C 332.003,294.067 334.836,296.734 337.5,299.5C 337.999,302.389 339.499,303.056 342,301.5C 342.5,281.836 342.667,262.169 342.5,242.5C 344.053,240.615 346.053,239.615 348.5,239.5C 348.5,240.5 348.5,241.5 348.5,242.5 Z"/></g>
<g><path style="opacity:1" fill="#954ee4" d="M 297.5,271.5 C 297.334,281.839 297.5,292.172 298,302.5C 298.383,301.944 298.883,301.611 299.5,301.5C 299.179,303.048 298.179,303.715 296.5,303.5C 296.172,292.654 296.506,281.987 297.5,271.5 Z"/></g>
<g><path style="opacity:1" fill="#9c5be0" d="M 325.5,239.5 C 326.167,258.167 326.833,276.833 327.5,295.5C 326.402,296.397 326.402,297.23 327.5,298C 333.397,299.714 338.064,303.214 341.5,308.5C 337.765,306.275 334.432,303.442 331.5,300C 328.66,299.034 326.66,299.867 325.5,302.5C 325.5,299.5 325.5,296.5 325.5,293.5C 325.5,275.5 325.5,257.5 325.5,239.5 Z"/></g>
<g><path style="opacity:1" fill="#995adb" d="M 312.5,191.5 C 313.167,208.83 313.5,226.33 313.5,244C 313.493,261.885 312.826,279.552 311.5,297C 313.538,298.236 314.705,300.069 315,302.5C 316.202,300.323 316.702,297.989 316.5,295.5C 316.833,295.5 317.167,295.5 317.5,295.5C 317.837,299.308 317.337,302.974 316,306.5C 314.111,304.517 312.778,302.184 312,299.5C 311.329,298.748 310.496,298.414 309.5,298.5C 311.167,294.833 310.167,293.833 306.5,295.5C 307.401,293.273 309.067,292.273 311.5,292.5C 312.501,260.865 312.834,227.198 312.5,191.5 Z"/></g>
<g><path style="opacity:1" fill="#8846c4" d="M 321.5,300.5 C 322.467,301.806 323.801,302.473 325.5,302.5C 322.949,305.23 321.616,304.563 321.5,300.5 Z"/></g>
<g><path style="opacity:1" fill="#6601fc" d="M 176.5,326.5 C 177.167,326.5 177.833,326.5 178.5,326.5C 189.15,327.238 199.817,327.572 210.5,327.5C 210.5,330.5 210.5,333.5 210.5,336.5C 202.58,336.185 194.747,336.518 187,337.5C 186.24,341.225 186.407,344.892 187.5,348.5C 193.798,349.496 200.132,349.83 206.5,349.5C 206.5,352.5 206.5,355.5 206.5,358.5C 200.642,358.178 194.975,358.511 189.5,359.5C 188.235,360.514 187.569,362.014 187.5,364C 187.508,365.707 187.842,367.207 188.5,368.5C 188.5,369.167 188.833,369.5 189.5,369.5C 196.313,370.491 203.313,370.825 210.5,370.5C 210.5,373.833 210.5,377.167 210.5,380.5C 199.167,380.5 187.833,380.5 176.5,380.5C 176.5,362.5 176.5,344.5 176.5,326.5 Z"/></g>
<g><path style="opacity:1" fill="#6603fa" d="M 305.5,330.5 C 306.265,333.096 306.599,335.763 306.5,338.5C 305.5,339.833 304.5,341.167 303.5,342.5C 301.784,342.371 300.117,342.038 298.5,341.5C 297.5,341.167 296.833,340.5 296.5,339.5C 296.196,338.85 295.863,338.183 295.5,337.5C 293.167,337.167 290.833,336.833 288.5,336.5C 285.731,336.529 283.397,337.195 281.5,338.5C 279.508,338.328 277.842,338.995 276.5,340.5C 275.549,339.674 274.549,339.508 273.5,340C 274.38,341.356 274.714,342.856 274.5,344.5C 274.5,344.833 274.5,345.167 274.5,345.5C 271.606,346.768 270.273,349.102 270.5,352.5C 270.556,354.64 271.223,356.306 272.5,357.5C 273.363,359.421 274.029,361.421 274.5,363.5C 275.396,366.069 277.062,368.069 279.5,369.5C 284.131,370.662 288.798,370.828 293.5,370C 294.756,369.583 295.423,368.75 295.5,367.5C 302.307,364.596 306.307,366.93 307.5,374.5C 307.167,375.5 306.5,376.167 305.5,376.5C 295.086,380.8 284.419,381.467 273.5,378.5C 271.856,376.519 270.19,374.519 268.5,372.5C 269.485,370.902 269.651,369.235 269,367.5C 268.085,368.328 267.419,369.328 267,370.5C 265.67,369.418 264.17,368.751 262.5,368.5C 262.5,368.167 262.5,367.833 262.5,367.5C 260.591,360.292 260.091,352.959 261,345.5C 263.558,342.269 265.058,338.602 265.5,334.5C 267.749,333.92 269.415,332.587 270.5,330.5C 272.336,328.412 274.669,327.079 277.5,326.5C 282.481,325.668 287.481,325.502 292.5,326C 297.066,327.021 301.4,328.521 305.5,330.5 Z"/></g>
<g><path style="opacity:1" fill="#742dce" d="M 346.5,325.5 C 342.486,325.334 338.486,325.501 334.5,326C 330.567,328.136 326.567,329.969 322.5,331.5C 329.365,324.823 337.365,322.823 346.5,325.5 Z"/></g>
<g><path style="opacity:1" fill="#6604fa" d="M 346.5,325.5 C 347.167,325.5 347.833,325.5 348.5,325.5C 348.414,326.496 348.748,327.329 349.5,328C 352.501,327.906 354.501,329.239 355.5,332C 358.46,332.174 360.794,333.34 362.5,335.5C 365.164,337.484 366.831,340.151 367.5,343.5C 368.397,348.14 368.564,352.806 368,357.5C 366.936,361.594 365.77,365.594 364.5,369.5C 361.777,374.556 357.777,378.223 352.5,380.5C 343.8,380.711 335.133,380.377 326.5,379.5C 322.478,377.478 319.478,374.478 317.5,370.5C 315.035,365.524 313.701,360.19 313.5,354.5C 314.06,349.476 314.726,344.476 315.5,339.5C 317.339,338.492 318.672,336.992 319.5,335C 320.448,334.517 321.448,334.351 322.5,334.5C 322.5,333.5 322.5,332.5 322.5,331.5C 326.567,329.969 330.567,328.136 334.5,326C 338.486,325.501 342.486,325.334 346.5,325.5 Z"/></g>
<g><path style="opacity:1" fill="#6600fd" d="M 232.5,351.5 C 232.177,357.69 232.51,363.69 233.5,369.5C 240.982,370.492 248.648,370.825 256.5,370.5C 256.5,373.833 256.5,377.167 256.5,380.5C 245.167,380.5 233.833,380.5 222.5,380.5C 222.333,363.83 222.5,347.163 223,330.5C 224.309,328.109 225.309,328.109 226,330.5C 227.186,328.323 229.019,327.323 231.5,327.5C 231.174,335.684 231.508,343.684 232.5,351.5 Z"/></g>
<g><path style="opacity:1" fill="#7832cd" d="M 305.5,330.5 C 301.4,328.521 297.066,327.021 292.5,326C 287.481,325.502 282.481,325.668 277.5,326.5C 285.063,323.855 292.729,324.022 300.5,327C 302.584,327.697 304.251,328.864 305.5,330.5 Z"/></g>
<g><path style="opacity:1" fill="#6602fb" d="M 411.5,330.5 C 412.5,330.833 413.167,331.5 413.5,332.5C 416.2,338.641 416.867,344.975 415.5,351.5C 415.267,353.062 414.6,354.395 413.5,355.5C 407.954,353.55 406.121,355.55 408,361.5C 408.236,363.119 409.069,364.119 410.5,364.5C 410.739,366.467 410.406,368.301 409.5,370C 410.449,370.617 411.282,370.451 412,369.5C 412.034,371.18 412.201,372.68 412.5,374C 411.833,374.333 411.167,374.667 410.5,375C 410.996,376.996 411.996,378.663 413.5,380C 410.854,380.497 408.187,380.664 405.5,380.5C 405.408,378.152 404.408,376.486 402.5,375.5C 401.326,374.486 400.66,373.153 400.5,371.5C 400.762,370.022 400.429,368.689 399.5,367.5C 398.591,365.625 397.257,364.292 395.5,363.5C 393.898,361.926 391.898,361.259 389.5,361.5C 388.51,367.645 388.177,373.978 388.5,380.5C 385.167,380.5 381.833,380.5 378.5,380.5C 378.5,362.833 378.5,345.167 378.5,327.5C 386.84,327.334 395.173,327.5 403.5,328C 406.279,328.561 408.946,329.394 411.5,330.5 Z M 403.5,346.5 C 402.373,347.122 401.373,347.955 400.5,349C 396.848,349.499 393.182,349.665 389.5,349.5C 389.5,349.167 389.5,348.833 389.5,348.5C 389.5,344.833 389.5,341.167 389.5,337.5C 393.605,337.234 397.605,337.734 401.5,339C 404.145,341.084 404.811,343.584 403.5,346.5 Z"/></g>
<g><path style="opacity:1" fill="#6707fa" d="M 462.5,332.5 C 464.18,337.61 464.847,342.943 464.5,348.5C 462.891,348.094 461.557,348.094 460.5,348.5C 461.311,349.216 461.978,350.05 462.5,351C 460.997,352.921 460.331,355.088 460.5,357.5C 460.167,357.5 459.833,357.5 459.5,357.5C 452.479,359.658 445.312,360.991 438,361.5C 437.5,367.825 437.334,374.158 437.5,380.5C 433.833,380.5 430.167,380.5 426.5,380.5C 426.5,362.833 426.5,345.167 426.5,327.5C 435.173,327.334 443.84,327.5 452.5,328C 453.167,328.667 453.833,329.333 454.5,330C 457.412,330.275 460.079,331.109 462.5,332.5 Z M 449.5,338.5 C 452.583,341.248 453.25,344.582 451.5,348.5C 447.566,349.36 443.566,349.693 439.5,349.5C 439.5,345.5 439.5,341.5 439.5,337.5C 442.833,337.833 446.167,338.167 449.5,338.5 Z"/></g>
<g><path style="opacity:1" fill="#7025dc" d="M 348.5,325.5 C 354.633,326.992 359.3,330.326 362.5,335.5C 360.794,333.34 358.46,332.174 355.5,332C 354.501,329.239 352.501,327.906 349.5,328C 348.748,327.329 348.414,326.496 348.5,325.5 Z"/></g>
<g><path style="opacity:1" fill="#742fcd" d="M 270.5,330.5 C 269.415,332.587 267.749,333.92 265.5,334.5C 266.585,332.413 268.251,331.08 270.5,330.5 Z"/></g>
<g><path style="opacity:1" fill="#7531d8" d="M 305.5,330.5 C 307.487,331.164 309.154,332.331 310.5,334C 308.93,335.397 307.596,336.897 306.5,338.5C 306.599,335.763 306.265,333.096 305.5,330.5 Z"/></g>
<g><path style="opacity:1" fill="#6f24d8" d="M 178.5,326.5 C 178.5,326.167 178.5,325.833 178.5,325.5C 189.5,325.5 200.5,325.5 211.5,325.5C 211.5,329.833 211.5,334.167 211.5,338.5C 203.833,338.5 196.167,338.5 188.5,338.5C 188.5,341.167 188.5,343.833 188.5,346.5C 194.412,348.456 200.745,349.123 207.5,348.5C 207.5,350.5 207.5,352.5 207.5,354.5C 207.5,356.167 207.5,357.833 207.5,359.5C 201.5,359.5 195.5,359.5 189.5,359.5C 194.975,358.511 200.642,358.178 206.5,358.5C 206.5,355.5 206.5,352.5 206.5,349.5C 200.132,349.83 193.798,349.496 187.5,348.5C 186.407,344.892 186.24,341.225 187,337.5C 194.747,336.518 202.58,336.185 210.5,336.5C 210.5,333.5 210.5,330.5 210.5,327.5C 199.817,327.572 189.15,327.238 178.5,326.5 Z"/></g>
<g><path style="opacity:1" fill="#7024d2" d="M 296.5,339.5 C 291.594,337.514 286.594,337.181 281.5,338.5C 283.397,337.195 285.731,336.529 288.5,336.5C 290.833,336.833 293.167,337.167 295.5,337.5C 295.863,338.183 296.196,338.85 296.5,339.5 Z"/></g>
<g><path style="opacity:1" fill="#7a30d9" d="M 322.5,331.5 C 322.5,332.5 322.5,333.5 322.5,334.5C 321.448,334.351 320.448,334.517 319.5,335C 318.672,336.992 317.339,338.492 315.5,339.5C 316.45,335.587 318.783,332.92 322.5,331.5 Z"/></g>
<g><path style="opacity:1" fill="#772de1" d="M 281.5,338.5 C 278.94,340.273 276.607,342.273 274.5,344.5C 274.714,342.856 274.38,341.356 273.5,340C 274.549,339.508 275.549,339.674 276.5,340.5C 277.842,338.995 279.508,338.328 281.5,338.5 Z"/></g>
<g><path style="opacity:1" fill="#b059fa" d="M 335.5,337.5 C 334.415,339.587 332.749,340.92 330.5,341.5C 331.585,339.413 333.251,338.08 335.5,337.5 Z"/></g>
<g><path style="opacity:1" fill="#681dce" d="M 403.5,346.5 C 404.811,343.584 404.145,341.084 401.5,339C 397.605,337.734 393.605,337.234 389.5,337.5C 389.5,341.167 389.5,344.833 389.5,348.5C 388.517,344.702 388.183,340.702 388.5,336.5C 393.267,336.191 397.934,336.691 402.5,338C 405.754,340.751 406.088,343.584 403.5,346.5 Z"/></g>
<g><path style="opacity:1" fill="#8448ca" d="M 298.5,341.5 C 300.117,342.038 301.784,342.371 303.5,342.5C 301.543,345.059 299.877,344.726 298.5,341.5 Z"/></g>
<g><path style="opacity:1" fill="#762cd0" d="M 413.5,332.5 C 415.41,333.975 416.576,335.975 417,338.5C 417.667,342.167 417.667,345.833 417,349.5C 416.722,350.416 416.222,351.082 415.5,351.5C 416.867,344.975 416.2,338.641 413.5,332.5 Z"/></g>
<g><path style="opacity:1" fill="#752bd1" d="M 449.5,338.5 C 450.833,338.5 452.167,338.5 453.5,338.5C 454.069,342.329 453.402,345.663 451.5,348.5C 453.25,344.582 452.583,341.248 449.5,338.5 Z"/></g>
<g><path style="opacity:1" fill="#761fea" d="M 335.5,337.5 C 333.251,338.08 331.585,339.413 330.5,341.5C 329.816,344.851 327.816,346.851 324.5,347.5C 324.351,346.448 324.517,345.448 325,344.5C 327.35,342.317 329.517,339.984 331.5,337.5C 332.995,336.295 334.328,336.295 335.5,337.5 Z"/></g>
<g><path style="opacity:1" fill="#640fdd" d="M 401.5,326.5 C 405.567,326.206 408.9,327.54 411.5,330.5C 408.946,329.394 406.279,328.561 403.5,328C 395.173,327.5 386.84,327.334 378.5,327.5C 378.5,345.167 378.5,362.833 378.5,380.5C 381.833,380.5 385.167,380.5 388.5,380.5C 388.177,373.978 388.51,367.645 389.5,361.5C 389.5,368.167 389.5,374.833 389.5,381.5C 385.5,381.5 381.5,381.5 377.5,381.5C 377.5,363.167 377.5,344.833 377.5,326.5C 385.5,326.5 393.5,326.5 401.5,326.5 Z"/></g>
<g><path style="opacity:1" fill="#7c3bbd" d="M 178.5,325.5 C 178.5,325.833 178.5,326.167 178.5,326.5C 177.833,326.5 177.167,326.5 176.5,326.5C 175.503,344.659 175.17,362.992 175.5,381.5C 187.5,381.5 199.5,381.5 211.5,381.5C 211.5,377.5 211.5,373.5 211.5,369.5C 204.167,369.5 196.833,369.5 189.5,369.5C 188.833,369.5 188.5,369.167 188.5,368.5C 196.5,368.5 204.5,368.5 212.5,368.5C 212.5,373.167 212.5,377.833 212.5,382.5C 199.833,382.5 187.167,382.5 174.5,382.5C 174.5,363.5 174.5,344.5 174.5,325.5C 175.833,325.5 177.167,325.5 178.5,325.5 Z"/></g>
<g><path style="opacity:1" fill="#b071ed" d="M 188.5,346.5 C 195.078,347.46 201.745,347.793 208.5,347.5C 208.802,350.059 208.468,352.393 207.5,354.5C 207.5,352.5 207.5,350.5 207.5,348.5C 200.745,349.123 194.412,348.456 188.5,346.5 Z"/></g>
<g><path style="opacity:1" fill="#762ed8" d="M 274.5,345.5 C 272.746,349.258 272.079,353.258 272.5,357.5C 272.079,353.258 272.746,349.258 274.5,345.5 Z"/></g>
<g><path style="opacity:1" fill="#7528de" d="M 403.5,346.5 C 402.829,347.847 402.829,349.014 403.5,350C 398.648,350.815 393.981,350.648 389.5,349.5C 393.182,349.665 396.848,349.499 400.5,349C 401.373,347.955 402.373,347.122 403.5,346.5 Z"/></g>
<g><path style="opacity:1" fill="#6f25d4" d="M 265.5,334.5 C 265.058,338.602 263.558,342.269 261,345.5C 260.091,352.959 260.591,360.292 262.5,367.5C 260.554,365.266 259.387,362.599 259,359.5C 257.282,350.035 259.448,341.701 265.5,334.5 Z"/></g>
<g><path style="opacity:1" fill="#823cd9" d="M 462.5,332.5 C 460.079,331.109 457.412,330.275 454.5,330C 453.833,329.333 453.167,328.667 452.5,328C 443.84,327.5 435.173,327.334 426.5,327.5C 426.5,345.167 426.5,362.833 426.5,380.5C 430.167,380.5 433.833,380.5 437.5,380.5C 437.334,374.158 437.5,367.825 438,361.5C 445.312,360.991 452.479,359.658 459.5,357.5C 458.657,359.173 457.324,360.34 455.5,361C 450.246,362.271 444.913,362.771 439.5,362.5C 438.51,368.645 438.177,374.978 438.5,381.5C 434.167,381.5 429.833,381.5 425.5,381.5C 424.338,363.338 424.171,345.005 425,326.5C 434.089,325.35 443.255,325.183 452.5,326C 457.021,326.439 460.354,328.605 462.5,332.5 Z"/></g>
<g><path style="opacity:1" fill="#8b47d7" d="M 257.5,369.5 C 249.5,369.5 241.5,369.5 233.5,369.5C 232.51,363.69 232.177,357.69 232.5,351.5C 232.5,343.167 232.5,334.833 232.5,326.5C 228.833,326.5 225.167,326.5 221.5,326.5C 221.5,344.833 221.5,363.167 221.5,381.5C 221.167,381.5 220.833,381.5 220.5,381.5C 219.503,363.007 219.17,344.341 219.5,325.5C 224.167,325.5 228.833,325.5 233.5,325.5C 233.5,339.833 233.5,354.167 233.5,368.5C 241.684,368.174 249.684,368.508 257.5,369.5 Z"/></g>
<g><path style="opacity:1" fill="#782edb" d="M 462.5,332.5 C 465.386,335.483 466.72,339.149 466.5,343.5C 466.615,349.177 464.615,353.843 460.5,357.5C 460.331,355.088 460.997,352.921 462.5,351C 461.978,350.05 461.311,349.216 460.5,348.5C 461.557,348.094 462.891,348.094 464.5,348.5C 464.847,342.943 464.18,337.61 462.5,332.5 Z"/></g>
<g><path style="opacity:1" fill="#6f25de" d="M 413.5,355.5 C 411.681,356.584 410.015,357.918 408.5,359.5C 409.456,361.075 410.123,362.742 410.5,364.5C 409.069,364.119 408.236,363.119 408,361.5C 406.121,355.55 407.954,353.55 413.5,355.5 Z"/></g>
<g><path style="opacity:1" fill="#843ed5" d="M 315.5,339.5 C 314.726,344.476 314.06,349.476 313.5,354.5C 313.701,360.19 315.035,365.524 317.5,370.5C 315.864,369.251 314.697,367.584 314,365.5C 310.325,356.461 310.825,347.794 315.5,339.5 Z"/></g>
<g><path style="opacity:1" fill="#762cd7" d="M 367.5,343.5 C 371.191,350.262 371.358,357.262 368,364.5C 367.303,366.584 366.136,368.251 364.5,369.5C 365.77,365.594 366.936,361.594 368,357.5C 368.564,352.806 368.397,348.14 367.5,343.5 Z"/></g>
<g><path style="opacity:1" fill="#813fcc" d="M 189.5,359.5 C 195.5,359.5 201.5,359.5 207.5,359.5C 201.681,360.328 195.681,360.828 189.5,361C 188.565,363.381 188.232,365.881 188.5,368.5C 187.842,367.207 187.508,365.707 187.5,364C 187.569,362.014 188.235,360.514 189.5,359.5 Z"/></g>
<g><path style="opacity:1" fill="#6f28d1" d="M 307.5,374.5 C 306.307,366.93 302.307,364.596 295.5,367.5C 297.355,365.967 299.188,364.3 301,362.5C 303.667,365.167 306.333,367.833 309,370.5C 309.773,372.352 309.273,373.686 307.5,374.5 Z"/></g>
<g><path style="opacity:1" fill="#732ad7" d="M 274.5,363.5 C 280.559,369.634 287.559,370.967 295.5,367.5C 295.423,368.75 294.756,369.583 293.5,370C 288.798,370.828 284.131,370.662 279.5,369.5C 277.062,368.069 275.396,366.069 274.5,363.5 Z"/></g>
<g><path style="opacity:1" fill="#762fd8" d="M 395.5,363.5 C 397.257,364.292 398.591,365.625 399.5,367.5C 400.429,368.689 400.762,370.022 400.5,371.5C 398.347,369.206 396.68,366.54 395.5,363.5 Z"/></g>
<g><path style="opacity:1" fill="#c387f2" d="M 439.5,362.5 C 439.5,369.167 439.5,375.833 439.5,382.5C 434.637,382.819 429.97,382.486 425.5,381.5C 429.833,381.5 434.167,381.5 438.5,381.5C 438.177,374.978 438.51,368.645 439.5,362.5 Z"/></g>
<g><path style="opacity:1" fill="#6918e5" d="M 273.5,378.5 C 269.229,375.899 265.563,372.566 262.5,368.5C 264.17,368.751 265.67,369.418 267,370.5C 267.419,369.328 268.085,368.328 269,367.5C 269.651,369.235 269.485,370.902 268.5,372.5C 270.19,374.519 271.856,376.519 273.5,378.5 Z"/></g>
<g><path style="opacity:1" fill="#6f1fe6" d="M 410.5,364.5 C 412.892,367.598 415.058,370.931 417,374.5C 418.707,376.909 419.54,379.575 419.5,382.5C 414.637,382.819 409.97,382.486 405.5,381.5C 405.5,381.167 405.5,380.833 405.5,380.5C 408.187,380.664 410.854,380.497 413.5,380C 411.996,378.663 410.996,376.996 410.5,375C 411.167,374.667 411.833,374.333 412.5,374C 412.201,372.68 412.034,371.18 412,369.5C 411.282,370.451 410.449,370.617 409.5,370C 410.406,368.301 410.739,366.467 410.5,364.5 Z"/></g>
<g><path style="opacity:1" fill="#8442d4" d="M 402.5,375.5 C 404.408,376.486 405.408,378.152 405.5,380.5C 405.5,380.833 405.5,381.167 405.5,381.5C 403.992,379.819 402.992,377.819 402.5,375.5 Z"/></g>
<g><path style="opacity:1" fill="#7230bd" d="M 401.5,326.5 C 393.5,326.5 385.5,326.5 377.5,326.5C 377.5,344.833 377.5,363.167 377.5,381.5C 381.5,381.5 385.5,381.5 389.5,381.5C 385.366,382.485 381.032,382.818 376.5,382.5C 376.5,363.5 376.5,344.5 376.5,325.5C 385.017,325.174 393.35,325.507 401.5,326.5 Z"/></g>
<g><path style="opacity:1" fill="#6209dd" d="M 176.5,326.5 C 176.5,344.5 176.5,362.5 176.5,380.5C 187.833,380.5 199.167,380.5 210.5,380.5C 210.5,377.167 210.5,373.833 210.5,370.5C 203.313,370.825 196.313,370.491 189.5,369.5C 196.833,369.5 204.167,369.5 211.5,369.5C 211.5,373.5 211.5,377.5 211.5,381.5C 199.5,381.5 187.5,381.5 175.5,381.5C 175.17,362.992 175.503,344.659 176.5,326.5 Z"/></g>
<g><path style="opacity:1" fill="#6208e0" d="M 232.5,351.5 C 231.508,343.684 231.174,335.684 231.5,327.5C 229.019,327.323 227.186,328.323 226,330.5C 225.309,328.109 224.309,328.109 223,330.5C 222.5,347.163 222.333,363.83 222.5,380.5C 233.833,380.5 245.167,380.5 256.5,380.5C 256.5,377.167 256.5,373.833 256.5,370.5C 248.648,370.825 240.982,370.492 233.5,369.5C 241.5,369.5 249.5,369.5 257.5,369.5C 257.5,373.5 257.5,377.5 257.5,381.5C 245.5,381.5 233.5,381.5 221.5,381.5C 221.5,363.167 221.5,344.833 221.5,326.5C 225.167,326.5 228.833,326.5 232.5,326.5C 232.5,334.833 232.5,343.167 232.5,351.5 Z"/></g>
<g><path style="opacity:1" fill="#7831d5" d="M 305.5,376.5 C 297.079,382.584 287.746,384.084 277.5,381C 275.934,380.392 274.6,379.558 273.5,378.5C 284.419,381.467 295.086,380.8 305.5,376.5 Z"/></g>
<g><path style="opacity:1" fill="#8641d8" d="M 326.5,379.5 C 335.133,380.377 343.8,380.711 352.5,380.5C 344.693,382.979 336.693,383.146 328.5,381C 327.584,380.722 326.918,380.222 326.5,379.5 Z"/></g>
<g><path style="opacity:1" fill="#8b4dc4" d="M 257.5,369.5 C 258.485,373.634 258.818,377.968 258.5,382.5C 245.656,382.829 232.989,382.495 220.5,381.5C 220.833,381.5 221.167,381.5 221.5,381.5C 233.5,381.5 245.5,381.5 257.5,381.5C 257.5,377.5 257.5,373.5 257.5,369.5 Z"/></g>
<g><path style="opacity:1" fill="#8342d2" d="M 262.5,395.5 C 259.263,393.985 256.263,394.319 253.5,396.5C 253.414,395.504 253.748,394.671 254.5,394C 255.833,393.833 257.167,393.667 258.5,393.5C 260.333,393.585 261.666,394.252 262.5,395.5 Z"/></g>
<g><path style="opacity:1" fill="#9050d9" d="M 415.5,394.5 C 416.793,393.842 418.293,393.508 420,393.5C 421.986,393.569 423.486,394.235 424.5,395.5C 421.609,394.597 418.609,394.264 415.5,394.5 Z"/></g>
<g><path style="opacity:1" fill="#7935cf" d="M 316.5,394.5 C 314.073,394.523 311.74,395.023 309.5,396C 307.746,397.936 306.079,399.77 304.5,401.5C 306.288,395.039 310.288,392.705 316.5,394.5 Z"/></g>
<g><path style="opacity:1" fill="#6c22d8" d="M 415.5,394.5 C 418.609,394.264 421.609,394.597 424.5,395.5C 426.675,400.681 428.675,406.014 430.5,411.5C 427.04,407.572 424.873,402.906 424,397.5C 421.865,395.722 419.365,395.055 416.5,395.5C 415.234,398.301 414.401,401.301 414,404.5C 413.292,405.381 412.458,406.047 411.5,406.5C 412.637,402.421 413.971,398.421 415.5,394.5 Z"/></g>
<g><path style="opacity:1" fill="#6607f7" d="M 262.5,395.5 C 262.018,398.831 263.018,401.497 265.5,403.5C 265.736,406.914 266.402,410.247 267.5,413.5C 268.183,413.863 268.85,414.196 269.5,414.5C 269.5,414.833 269.5,415.167 269.5,415.5C 270.366,420.613 271.366,425.613 272.5,430.5C 267.611,430.056 264.945,427.389 264.5,422.5C 260.351,421.92 256.684,422.586 253.5,424.5C 253.008,426.819 252.008,428.819 250.5,430.5C 248.167,430.5 245.833,430.5 243.5,430.5C 243.5,428.833 243.5,427.167 243.5,425.5C 243.767,423.035 244.434,420.701 245.5,418.5C 247.897,415.691 249.23,412.358 249.5,408.5C 249.5,408.167 249.5,407.833 249.5,407.5C 251.99,404.374 253.323,400.708 253.5,396.5C 256.263,394.319 259.263,393.985 262.5,395.5 Z M 257.5,410.5 C 259.213,411.635 259.88,413.302 259.5,415.5C 258.5,415.5 257.5,415.5 256.5,415.5C 256.629,413.784 256.962,412.117 257.5,410.5 Z"/></g>
<g><path style="opacity:1" fill="#680bf8" d="M 316.5,394.5 C 316.5,406.5 316.5,418.5 316.5,430.5C 314.167,430.5 311.833,430.5 309.5,430.5C 309.829,424.463 309.496,418.463 308.5,412.5C 307.893,412.624 307.56,412.957 307.5,413.5C 305.737,416.02 303.737,418.353 301.5,420.5C 300.167,420.167 298.833,419.833 297.5,419.5C 297.13,416.733 295.796,414.733 293.5,413.5C 292.833,419.167 292.167,424.833 291.5,430.5C 289.167,430.5 286.833,430.5 284.5,430.5C 284.5,418.833 284.5,407.167 284.5,395.5C 289.836,394.185 292.503,396.185 292.5,401.5C 293.5,401.5 294.5,401.5 295.5,401.5C 295.136,406.648 297.303,408.648 302,407.5C 302.791,406.255 303.291,404.922 303.5,403.5C 303.328,402.508 303.662,401.842 304.5,401.5C 306.079,399.77 307.746,397.936 309.5,396C 311.74,395.023 314.073,394.523 316.5,394.5 Z"/></g>
<g><path style="opacity:1" fill="#6502fa" d="M 211.5,394.5 C 212.6,395.605 213.267,396.938 213.5,398.5C 214.723,402.049 216.723,405.049 219.5,407.5C 219.632,410.797 221.298,412.463 224.5,412.5C 225.363,406.545 225.697,400.545 225.5,394.5C 227.833,394.5 230.167,394.5 232.5,394.5C 232.5,406.5 232.5,418.5 232.5,430.5C 229.833,430.5 227.167,430.5 224.5,430.5C 223.05,423.488 219.383,418.155 213.5,414.5C 213.5,414.167 213.5,413.833 213.5,413.5C 213.179,411.952 212.179,411.285 210.5,411.5C 210.5,417.833 210.5,424.167 210.5,430.5C 207.833,430.5 205.167,430.5 202.5,430.5C 202.5,418.5 202.5,406.5 202.5,394.5C 205.5,394.5 208.5,394.5 211.5,394.5 Z"/></g>
<g><path style="opacity:1" fill="#6602fb" d="M 373.5,412.5 C 374.383,417.103 374.717,421.77 374.5,426.5C 373.127,426.343 371.793,426.51 370.5,427C 370.833,427.333 371.167,427.667 371.5,428C 364.507,428.666 357.507,429.166 350.5,429.5C 350.5,418.5 350.5,407.5 350.5,396.5C 357.175,396.334 363.842,396.5 370.5,397C 374.233,400.954 374.9,405.288 372.5,410C 372.528,411.07 372.861,411.903 373.5,412.5 Z M 357.5,403.5 C 359.527,403.338 361.527,403.505 363.5,404C 366.003,405.549 366.003,407.216 363.5,409C 361.455,409.49 359.455,409.323 357.5,408.5C 357.5,406.833 357.5,405.167 357.5,403.5 Z M 357.5,417.5 C 360.5,417.5 363.5,417.5 366.5,417.5C 366.67,418.822 366.337,419.989 365.5,421C 362.854,421.497 360.187,421.664 357.5,421.5C 357.5,420.167 357.5,418.833 357.5,417.5 Z"/></g>
<g><path style="opacity:1" fill="#6603f9" d="M 430.5,411.5 C 430.5,411.833 430.5,412.167 430.5,412.5C 430.481,416.352 431.314,420.019 433,423.5C 433.708,424.381 434.542,425.047 435.5,425.5C 435.5,425.833 435.5,426.167 435.5,426.5C 435.5,427.833 435.5,429.167 435.5,430.5C 432.43,430.632 429.43,430.299 426.5,429.5C 426.5,429.167 426.5,428.833 426.5,428.5C 426.714,426.856 426.38,425.356 425.5,424C 421.973,423.192 418.64,423.359 415.5,424.5C 415.5,425.167 415.167,425.5 414.5,425.5C 413.069,426.78 412.402,428.447 412.5,430.5C 408.43,431.492 406.43,429.992 406.5,426C 408.942,420.052 410.609,413.885 411.5,407.5C 411.5,407.167 411.5,406.833 411.5,406.5C 412.458,406.047 413.292,405.381 414,404.5C 414.401,401.301 415.234,398.301 416.5,395.5C 419.365,395.055 421.865,395.722 424,397.5C 424.873,402.906 427.04,407.572 430.5,411.5 Z M 419.5,410.5 C 421.28,411.99 421.946,413.99 421.5,416.5C 420.5,416.5 419.5,416.5 418.5,416.5C 418.366,414.708 418.699,413.042 419.5,411.5C 419.5,411.167 419.5,410.833 419.5,410.5 Z"/></g>
<g><path style="opacity:1" fill="#6813e2" d="M 290.5,394.5 C 292.9,396.296 294.567,398.63 295.5,401.5C 294.5,401.5 293.5,401.5 292.5,401.5C 292.503,396.185 289.836,394.185 284.5,395.5C 284.5,407.167 284.5,418.833 284.5,430.5C 283.505,418.678 283.172,406.678 283.5,394.5C 285.833,394.5 288.167,394.5 290.5,394.5 Z"/></g>
<g><path style="opacity:1" fill="#803dc3" d="M 332.5,431.5 C 332.5,431.167 332.5,430.833 332.5,430.5C 332.833,430.5 333.167,430.5 333.5,430.5C 334.833,430.5 336.167,430.5 337.5,430.5C 337.5,418.5 337.5,406.5 337.5,394.5C 334.302,393.964 331.635,394.631 329.5,396.5C 329.167,396.5 328.833,396.5 328.5,396.5C 328.5,395.5 328.5,394.5 328.5,393.5C 331.833,393.5 335.167,393.5 338.5,393.5C 338.5,406.167 338.5,418.833 338.5,431.5C 336.5,431.5 334.5,431.5 332.5,431.5 Z"/></g>
<g><path style="opacity:1" fill="#752dd2" d="M 262.5,395.5 C 263.871,397.936 264.871,400.603 265.5,403.5C 263.018,401.497 262.018,398.831 262.5,395.5 Z"/></g>
<g><path style="opacity:1" fill="#9048e3" d="M 211.5,394.5 C 208.5,394.5 205.5,394.5 202.5,394.5C 202.5,406.5 202.5,418.5 202.5,430.5C 202.5,430.833 202.5,431.167 202.5,431.5C 201.505,419.011 201.171,406.344 201.5,393.5C 205.042,393.187 208.375,393.521 211.5,394.5 Z"/></g>
<g><path style="opacity:1" fill="#7831cf" d="M 253.5,396.5 C 253.323,400.708 251.99,404.374 249.5,407.5C 250.462,403.605 251.796,399.939 253.5,396.5 Z"/></g>
<g><path style="opacity:1" fill="#6f2abb" d="M 290.5,394.5 C 288.167,394.5 285.833,394.5 283.5,394.5C 283.172,406.678 283.505,418.678 284.5,430.5C 286.833,430.5 289.167,430.5 291.5,430.5C 288.713,431.477 285.713,431.81 282.5,431.5C 282.5,418.833 282.5,406.167 282.5,393.5C 285.385,393.194 288.052,393.527 290.5,394.5 Z"/></g>
<g><path style="opacity:1" fill="#7431d1" d="M 213.5,398.5 C 216.241,400.975 218.241,403.975 219.5,407.5C 216.723,405.049 214.723,402.049 213.5,398.5 Z"/></g>
<g><path style="opacity:1" fill="#6f22de" d="M 295.5,401.5 C 297.137,403.316 298.637,405.316 300,407.5C 300.949,405.907 302.115,404.574 303.5,403.5C 303.291,404.922 302.791,406.255 302,407.5C 297.303,408.648 295.136,406.648 295.5,401.5 Z"/></g>
<g><path style="opacity:1" fill="#6719d1" d="M 373.5,412.5 C 372.861,411.903 372.528,411.07 372.5,410C 374.9,405.288 374.233,400.954 370.5,397C 363.842,396.5 357.175,396.334 350.5,396.5C 350.5,407.5 350.5,418.5 350.5,429.5C 357.507,429.166 364.507,428.666 371.5,428C 371.167,427.667 370.833,427.333 370.5,427C 371.793,426.51 373.127,426.343 374.5,426.5C 373.056,429.89 370.39,431.223 366.5,430.5C 360.833,430.5 355.167,430.5 349.5,430.5C 349.768,428.901 349.434,427.568 348.5,426.5C 348.18,415.918 348.513,405.418 349.5,395C 356.5,394.333 363.5,394.333 370.5,395C 375.945,400.061 376.945,405.894 373.5,412.5 Z M 357.5,403.5 C 359.527,403.338 361.527,403.505 363.5,404C 366.003,405.549 366.003,407.216 363.5,409C 361.455,409.49 359.455,409.323 357.5,408.5C 357.5,406.833 357.5,405.167 357.5,403.5 Z"/></g>
<g><path style="opacity:1" fill="#732ad8" d="M 357.5,403.5 C 359.966,402.366 362.633,402.199 365.5,403C 367.69,407.73 366.19,410.23 361,410.5C 359.319,410.392 358.152,409.725 357.5,408.5C 359.455,409.323 361.455,409.49 363.5,409C 366.003,407.216 366.003,405.549 363.5,404C 361.527,403.505 359.527,403.338 357.5,403.5 Z"/></g>
<g><path style="opacity:1" fill="#823dd2" d="M 249.5,408.5 C 249.23,412.358 247.897,415.691 245.5,418.5C 246.267,414.851 247.6,411.518 249.5,408.5 Z"/></g>
<g><path style="opacity:1" fill="#7226d5" d="M 265.5,403.5 C 267.204,406.939 268.538,410.605 269.5,414.5C 268.85,414.196 268.183,413.863 267.5,413.5C 266.402,410.247 265.736,406.914 265.5,403.5 Z"/></g>
<g><path style="opacity:1" fill="#8c49d8" d="M 385.5,393.5 C 389.106,393.211 392.606,393.544 396,394.5C 396.5,406.829 396.667,419.162 396.5,431.5C 392.5,431.5 388.5,431.5 384.5,431.5C 384.439,418.82 384.772,406.153 385.5,393.5 Z"/></g>
<g><path style="opacity:1" fill="#6501fd" d="M 386.5,394.5 C 389.167,394.5 391.833,394.5 394.5,394.5C 394.5,406.5 394.5,418.5 394.5,430.5C 391.833,430.5 389.167,430.5 386.5,430.5C 386.5,418.5 386.5,406.5 386.5,394.5 Z"/></g>
<g><path style="opacity:1" fill="#803ad8" d="M 293.5,413.5 C 295.796,414.733 297.13,416.733 297.5,419.5C 295.684,417.882 294.351,415.882 293.5,413.5 Z"/></g>
<g><path style="opacity:1" fill="#7227d4" d="M 316.5,394.5 C 317.495,406.655 317.829,418.989 317.5,431.5C 314.167,431.5 310.833,431.5 307.5,431.5C 307.5,425.5 307.5,419.5 307.5,413.5C 307.56,412.957 307.893,412.624 308.5,412.5C 309.496,418.463 309.829,424.463 309.5,430.5C 311.833,430.5 314.167,430.5 316.5,430.5C 316.5,418.5 316.5,406.5 316.5,394.5 Z"/></g>
<g><path style="opacity:1" fill="#833fd5" d="M 328.5,396.5 C 328.833,396.5 329.167,396.5 329.5,396.5C 329.172,408.012 329.505,419.346 330.5,430.5C 331.167,430.5 331.833,430.5 332.5,430.5C 332.5,430.833 332.5,431.167 332.5,431.5C 330.833,431.5 329.167,431.5 327.5,431.5C 327.305,419.81 327.639,408.144 328.5,396.5 Z"/></g>
<g><path style="opacity:1" fill="#6207e6" d="M 333.5,430.5 C 334.209,429.596 335.209,429.263 336.5,429.5C 336.832,418.147 336.499,406.814 335.5,395.5C 333.997,396.052 332.331,396.052 330.5,395.5C 330.5,407.167 330.5,418.833 330.5,430.5C 329.505,419.346 329.172,408.012 329.5,396.5C 331.635,394.631 334.302,393.964 337.5,394.5C 337.5,406.5 337.5,418.5 337.5,430.5C 336.167,430.5 334.833,430.5 333.5,430.5 Z"/></g>
<g><path style="opacity:1" fill="#6501fd" d="M 333.5,430.5 C 333.167,430.5 332.833,430.5 332.5,430.5C 331.833,430.5 331.167,430.5 330.5,430.5C 330.5,418.833 330.5,407.167 330.5,395.5C 332.331,396.052 333.997,396.052 335.5,395.5C 336.499,406.814 336.832,418.147 336.5,429.5C 335.209,429.263 334.209,429.596 333.5,430.5 Z"/></g>
<g><path style="opacity:1" fill="#7023d7" d="M 430.5,412.5 C 432.734,416.522 434.401,420.856 435.5,425.5C 434.542,425.047 433.708,424.381 433,423.5C 431.314,420.019 430.481,416.352 430.5,412.5 Z"/></g>
<g><path style="opacity:1" fill="#6f20e1" d="M 419.5,410.5 C 420.209,409.596 421.209,409.263 422.5,409.5C 422.963,412.482 423.296,415.482 423.5,418.5C 421.533,418.739 419.699,418.406 418,417.5C 417.833,416.5 417.667,415.5 417.5,414.5C 417.64,412.97 418.307,411.97 419.5,411.5C 418.699,413.042 418.366,414.708 418.5,416.5C 419.5,416.5 420.5,416.5 421.5,416.5C 421.946,413.99 421.28,411.99 419.5,410.5 Z"/></g>
<g><path style="opacity:1" fill="#7028d2" d="M 373.5,412.5 C 375.894,414.332 376.894,416.832 376.5,420C 376.664,422.544 375.997,424.71 374.5,426.5C 374.717,421.77 374.383,417.103 373.5,412.5 Z"/></g>
<g><path style="opacity:1" fill="#722ec3" d="M 297.5,419.5 C 298.833,419.833 300.167,420.167 301.5,420.5C 299.949,422.982 298.616,422.648 297.5,419.5 Z"/></g>
<g><path style="opacity:1" fill="#7326e1" d="M 357.5,417.5 C 360.64,416.359 363.973,416.192 367.5,417C 368.406,418.699 368.739,420.533 368.5,422.5C 364.629,422.815 360.962,422.482 357.5,421.5C 360.187,421.664 362.854,421.497 365.5,421C 366.337,419.989 366.67,418.822 366.5,417.5C 363.5,417.5 360.5,417.5 357.5,417.5 Z"/></g>
<g><path style="opacity:1" fill="#6e22dd" d="M 213.5,414.5 C 219.383,418.155 223.05,423.488 224.5,430.5C 220.846,425.204 217.179,419.871 213.5,414.5 Z"/></g>
<g><path style="opacity:1" fill="#7930d9" d="M 269.5,415.5 C 271.865,420.241 273.865,425.241 275.5,430.5C 269.407,433.032 265.074,431.365 262.5,425.5C 259.579,424.593 256.579,424.26 253.5,424.5C 256.684,422.586 260.351,421.92 264.5,422.5C 264.945,427.389 267.611,430.056 272.5,430.5C 271.366,425.613 270.366,420.613 269.5,415.5 Z"/></g>
<g><path style="opacity:1" fill="#6210c7" d="M 213.5,413.5 C 212.883,413.389 212.383,413.056 212,412.5C 211.5,418.825 211.334,425.158 211.5,431.5C 208.5,431.5 205.5,431.5 202.5,431.5C 202.5,431.167 202.5,430.833 202.5,430.5C 205.167,430.5 207.833,430.5 210.5,430.5C 210.5,424.167 210.5,417.833 210.5,411.5C 212.179,411.285 213.179,411.952 213.5,413.5 Z"/></g>
<g><path style="opacity:1" fill="#7932d4" d="M 415.5,424.5 C 418.64,423.359 421.973,423.192 425.5,424C 426.38,425.356 426.714,426.856 426.5,428.5C 425.596,427.791 425.263,426.791 425.5,425.5C 422.214,424.793 418.881,424.46 415.5,424.5 Z"/></g>
<g><path style="opacity:1" fill="#7129d2" d="M 411.5,407.5 C 410.609,413.885 408.942,420.052 406.5,426C 406.43,429.992 408.43,431.492 412.5,430.5C 412.402,428.447 413.069,426.78 414.5,425.5C 414.643,427.262 414.309,428.929 413.5,430.5C 410.554,431.655 407.554,431.821 404.5,431C 403.978,430.439 403.645,429.772 403.5,429C 405.704,421.541 408.371,414.375 411.5,407.5 Z"/></g>
<g><path style="opacity:1" fill="#7a32d3" d="M 224.5,430.5 C 227.167,430.5 229.833,430.5 232.5,430.5C 232.5,418.5 232.5,406.5 232.5,394.5C 230.167,394.5 227.833,394.5 225.5,394.5C 225.697,400.545 225.363,406.545 224.5,412.5C 221.298,412.463 219.632,410.797 219.5,407.5C 220.885,408.574 222.051,409.907 223,411.5C 223.333,405.833 223.667,400.167 224,394.5C 227.057,393.549 230.223,393.216 233.5,393.5C 233.246,406.197 233.579,418.863 234.5,431.5C 230.958,431.813 227.625,431.479 224.5,430.5 Z"/></g>
<g><path style="opacity:1" fill="#853fcf" d="M 243.5,425.5 C 243.5,427.167 243.5,428.833 243.5,430.5C 245.833,430.5 248.167,430.5 250.5,430.5C 248.052,431.473 245.385,431.806 242.5,431.5C 242.205,429.265 242.539,427.265 243.5,425.5 Z"/></g>
<g><path style="opacity:1" fill="#ad6cef" d="M 348.5,426.5 C 349.434,427.568 349.768,428.901 349.5,430.5C 355.167,430.5 360.833,430.5 366.5,430.5C 360.69,431.49 354.69,431.823 348.5,431.5C 348.5,429.833 348.5,428.167 348.5,426.5 Z"/></g>
<g><path style="opacity:1" fill="#8640d1" d="M 435.5,426.5 C 436.249,427.531 436.915,428.698 437.5,430C 434.367,431.57 431.033,431.903 427.5,431C 426.944,430.617 426.611,430.117 426.5,429.5C 429.43,430.299 432.43,430.632 435.5,430.5C 435.5,429.167 435.5,427.833 435.5,426.5 Z"/></g>
</svg>
